<svg xmlns="http://www.w3.org/2000/svg" width="100.062" height="91.917" viewBox="0 0 100.062 91.917"><defs><style>.a{fill:#884d00;}.b{fill:#aa6100;}.c{fill:#ffa733;}.d{fill:#ffb655;}.e{fill:#eebf00;}.f{fill:#ffd422;}.g{fill:#6dc82a;}.h{fill:#7ed63e;}.i{fill:#ff3501;}.j{fill:#ff5023;}.k{fill:#fff5cc;}</style></defs><g transform="translate(-291 -1467)"><path class="a" d="M121.7,274.289a6.349,6.349,0,0,1-6.35,6.35H41.874a6.35,6.35,0,1,1,0-12.7h73.476a6.343,6.343,0,0,1,6.35,6.35Z" transform="translate(262.418 1247.353)"/><path class="b" d="M123.473,271.659a6.36,6.36,0,0,1-5.782,3.717H44.215a6.358,6.358,0,0,1-5.782-3.717,6.357,6.357,0,0,1,5.782-3.719h73.476A6.351,6.351,0,0,1,123.473,271.659Z" transform="translate(260.078 1247.352)"/><path class="c" d="M104.676,333.974a20.975,20.975,0,0,1-9.911,18.295c-6.125,4.035-14.586,6.023-23.931,6.023H41.417c-18.69,0-33.842-7.953-33.842-24.318a5.444,5.444,0,0,1,.638-2.554,6.156,6.156,0,0,1,1.409-1.771,7.492,7.492,0,0,1,4.941-1.792H97.688a7.105,7.105,0,0,1,6.35,3.563A5.441,5.441,0,0,1,104.676,333.974Z" transform="translate(284.905 1199.145)"/><path class="d" d="M106.664,331.42a21,21,0,0,1-9.274,12.756C91.265,348.211,82.8,350.2,73.459,350.2H44.043c-16.443,0-30.147-6.155-33.2-18.779a6.156,6.156,0,0,1,1.409-1.771,7.492,7.492,0,0,1,4.941-1.792h83.125A7.1,7.1,0,0,1,106.664,331.42Z" transform="translate(282.28 1199.145)"/><path class="e" d="M206.864,254.3l-16.428,16.428a8.94,8.94,0,0,1-12.643,0L161.365,254.3Z" transform="translate(161.171 1258.324)"/><path class="f" d="M243.7,254.3,227.273,270.73a8.987,8.987,0,0,1-1.319,1.088,8.867,8.867,0,0,1-3.429-2.14L207.15,254.3H243.7Z" transform="translate(124.334 1258.325)"/><path class="g" d="M110.42,240.277a7.694,7.694,0,0,1-.45,2.6c-1.206,3.366-4.436,4.672-6.952,2.813L100,243.461c-2.106-1.557-4.793-.92-6.317,1.5l-.128.2c-1.463,2.325-4.013,3.016-6.1,1.654L80.7,242.4a4.04,4.04,0,0,0-4.905.294L70.377,247.1a4.051,4.051,0,0,1-5.134.136l-6.179-4.58a4.042,4.042,0,0,0-5.087.1l-5.626,4.467a4.041,4.041,0,0,1-4.97.184L36.1,242.344a4.014,4.014,0,0,0-4.613-.073l-6.794,4.443a7.089,7.089,0,0,1-6.725-2.74,7.582,7.582,0,0,1-.606-5.989c.7-2.238,2.385-3.964,4.58-3.964h83.554c2.152,0,3.871,1.7,4.578,3.954A7.64,7.64,0,0,1,110.42,240.277Z" transform="translate(277.318 1274.642)"/><path class="h" d="M111.519,237.975c-.03.1-.063.2-.1.294-1.206,3.368-4.436,4.674-6.952,2.815l-3.018-2.231c-2.106-1.555-4.793-.918-6.317,1.5l-.128.205c-1.463,2.325-4.013,3.016-6.1,1.654l-6.759-4.42a4.037,4.037,0,0,0-4.905.294l-5.417,4.406a4.051,4.051,0,0,1-5.134.134l-6.179-4.58a4.045,4.045,0,0,0-5.087.1L49.8,242.616a4.044,4.044,0,0,1-4.97.184l-7.284-5.061a4.007,4.007,0,0,0-4.613-.073l-6.794,4.441a7.085,7.085,0,0,1-6.725-2.74,7.071,7.071,0,0,1-.606-1.382c.7-2.238,2.385-3.964,4.58-3.964h83.554C109.093,234.021,110.812,235.721,111.519,237.975Z" transform="translate(275.868 1274.642)"/><path class="i" d="M115.664,187.571a6.352,6.352,0,0,1-6.364,6.5c-11.41,0-41.8-.257-46.383-.1-.1,0-.205.008-.306.01-5.788.219-7.106,1.147-7.106,4.232v11.289a2.1,2.1,0,0,1-2.1,2.1,2.1,2.1,0,0,0-2.1,2.1v4.917a6.053,6.053,0,0,1-.174,1.449,6.144,6.144,0,0,1-5.989,4.684h-.156a5.984,5.984,0,0,1-5.983-6l.028-8.9a2.48,2.48,0,0,1,2.481-2.473,2.482,2.482,0,0,0,2.481-2.481V198.2a4.136,4.136,0,0,0-4.138-4.138H32.106a6.446,6.446,0,0,1-6.487-6.234,6.368,6.368,0,0,1,6.366-6.5h77.187A6.447,6.447,0,0,1,115.664,187.571Z" transform="translate(270.388 1317.03)"/><path class="j" d="M144.919,187.57a6.413,6.413,0,0,1-.243,1.889c-12.079-.012-40.941-.251-45.4-.1-6.048.2-7.412,1.105-7.412,4.244v.373c-5.788.219-7.106,1.147-7.106,4.232v11.289a2.1,2.1,0,0,1-2.1,2.1,2.1,2.1,0,0,0-2.1,2.1v4.917a6.053,6.053,0,0,1-.174,1.449,5.984,5.984,0,0,1-5.022-5.926l.028-8.9a2.48,2.48,0,0,1,2.481-2.473,2.482,2.482,0,0,0,2.481-2.481V193.6a4.136,4.136,0,0,0-4.138-4.138H68.468a6.446,6.446,0,0,1-6.487-6.234,6.37,6.37,0,0,1,.245-1.891h76.2A6.447,6.447,0,0,1,144.919,187.57Z" transform="translate(241.133 1317.031)"/><path class="e" d="M111.093,148.227l-14.085,14.09a12.529,12.529,0,0,1-17.719,0L65.2,148.227Z" transform="translate(238.542 1343.669)"/><path class="f" d="M144.136,148.227l-14.085,14.09a12.431,12.431,0,0,1-4.848,3.01,12.419,12.419,0,0,1-4.844-3.01l-14.09-14.09Z" transform="translate(205.5 1343.669)"/><path class="c" d="M104.677,53.81c0,.1,0,.207-.01.31a5.242,5.242,0,0,1-5.235,4.935H12.821A5.246,5.246,0,0,1,7.576,53.81c0-6.285,2.914-11.017,7.314-14.576a40.536,40.536,0,0,1,12.888-6.562c13.332-4.341,28.349-4.26,28.349-4.26S104.677,28.15,104.677,53.81Z" transform="translate(284.905 1440.068)"/><path class="d" d="M148.561,53.81c0,.1,0,.207-.01.31H67.364a5.246,5.246,0,0,1-5.245-5.245c0-6.285,2.914-11.017,7.314-14.576q1.06-.859,2.229-1.627c13.332-4.341,28.348-4.26,28.348-4.26S148.561,28.15,148.561,53.81Z" transform="translate(241.021 1440.068)"/><g transform="translate(314.619 1474.963)"><path class="k" d="M368.966,67.144a2.22,2.22,0,1,1-3.227,3.049c-.842-.891-2.392-3.978-1.5-4.82S368.124,66.253,368.966,67.144Z" transform="translate(-316.458 -64.45)"/><path class="k" d="M310.734,117.148a2.219,2.219,0,0,1-4.144,1.591c-.439-1.144-.7-4.589.447-5.028S310.294,116,310.734,117.148Z" transform="translate(-269.99 -103.485)"/><path class="k" d="M249.082,66.116a2.22,2.22,0,0,1-4.439,0c0-1.226.994-4.534,2.22-4.534S249.082,64.89,249.082,66.116Z" transform="translate(-220.45 -61.582)"/><path class="k" d="M186.925,118.161a2.22,2.22,0,1,1-4.3-1.11c.307-1.187,2.1-4.141,3.283-3.834S187.232,116.974,186.925,118.161Z" transform="translate(-170.497 -103.108)"/><path class="k" d="M125.07,68.057a2.219,2.219,0,0,1-3.995-1.935c.534-1.1,2.871-3.647,3.974-3.112S125.6,66.954,125.07,68.057Z" transform="translate(-120.852 -62.671)"/></g><path d="M146.065,381.281a1.483,1.483,0,0,0-1.8,1.068c-2.783,10.9-14.637,17.409-31.708,17.409H83.142c-8.478,0-15.912-1.658-21.5-4.8a1.48,1.48,0,1,0-1.449,2.582c6.031,3.385,13.968,5.176,22.952,5.176h29.415c14.9,0,30.891-5.205,34.578-19.637A1.482,1.482,0,0,0,146.065,381.281Z" transform="translate(243.181 1156.199)"/><path d="M285.514,294.9h0Z" transform="translate(61.285 1225.663)"/><path d="M93.455,79.548A7.773,7.773,0,0,0,94.6,75.737c4.347-2.511,4.922-9.907.922-13.3a7.755,7.755,0,0,0-.357-8.247,6.74,6.74,0,0,0,4.9-6.475c0-16.957-19.374-23.561-36.264-25.854a1.48,1.48,0,1,0-.4,2.933c14.958,2.031,33.7,7.76,33.7,22.92a3.77,3.77,0,0,1-3.764,3.764H6.726a3.77,3.77,0,0,1-3.764-3.764c0-9.718,7.553-16.682,22.448-20.7A104.914,104.914,0,0,1,50.088,23.8c.324,0,3.271.01,7.483.361a1.481,1.481,0,1,0,.247-2.951c-2.559-.213-5.266-.358-7.845-.371-12.909,0-31.99,2.965-42.111,11.151C2.645,36.209,0,41.5,0,47.716a6.741,6.741,0,0,0,4.868,6.465,7.773,7.773,0,0,0-.31,8.234A8.834,8.834,0,0,0,3,73.192a8.173,8.173,0,0,0,2.464,2.3,7.794,7.794,0,0,0,1.144,4.057A7.847,7.847,0,0,0,0,86.957a22.1,22.1,0,0,0,7.3,16.986,1.48,1.48,0,0,0,2-2.185,19.248,19.248,0,0,1-6.333-14.8c0-2.556,2.471-4.637,5.508-4.637h8.457L16.9,89.612A7.46,7.46,0,0,0,24.367,97.1h.156a7.637,7.637,0,0,0,7.643-7.614V84.571a.624.624,0,0,1,.624-.624,3.579,3.579,0,0,0,3-1.627h9.244c.877.647,3.433,4.669,8.988,4.669s8.116-4.024,8.99-4.669H91.594c3.006,0,5.478,2.059,5.508,4.592a1.478,1.478,0,0,0,1.478,1.463H98.6a1.481,1.481,0,0,0,1.465-1.5A7.879,7.879,0,0,0,93.455,79.548ZM52.025,54.441h39.2a4.8,4.8,0,0,1-2.537,8.909c-31.815,0-2.479-.082-46.435,0C45.222,61.772,46.145,60.12,52.025,54.441ZM5.533,71.661a5.906,5.906,0,0,1,.959-7,8.011,8.011,0,0,0,5,1.757h7.742A2.66,2.66,0,0,1,21.888,68.9a5.434,5.434,0,0,0-1.834-.32c-2.23,0-3.143.983-9.558,5.178A5.6,5.6,0,0,1,5.533,71.661Zm11.643,7.7H10.357a4.875,4.875,0,0,1-1.794-2.722c.79.124,2.583.233,3.255-.205l6.794-4.441a2.716,2.716,0,0,1,3.281.274v3.5a1,1,0,0,1-1,1A3.969,3.969,0,0,0,17.176,79.359Zm16.236-4.582v5.585a.623.623,0,0,1-.622.624,3.591,3.591,0,0,0-3.585,3.585v4.917a4.738,4.738,0,0,1-8.028,3.328,4.431,4.431,0,0,1-1.313-3.283c.007-2.149.014-4.636.027-8.812a1,1,0,0,1,1-1,3.967,3.967,0,0,0,3.962-3.962v-6.69a5.621,5.621,0,0,0-3.247-5.091c-1.867-.88-2.974-.385-10.113-.527a4.893,4.893,0,0,1-2.73-9.013H19.355l6.429,6.429a13.9,13.9,0,0,0,9.239,4.09C32.829,66.731,33.541,69.181,33.412,74.778Zm-5.533-16-4.337-4.337h24.3L43.5,58.778A11.041,11.041,0,0,1,27.879,58.778Zm8.494,20.581V76.238L37.81,75.1l4.262,4.262Zm22.4,2.961a7.456,7.456,0,0,1-10.03-.474l-8.6-8.6c.527-.262,2.2-2.521,4.359-.92l6.179,4.58a5.526,5.526,0,0,0,6.948-.176l5.417-4.406a2.552,2.552,0,0,1,3.162-.2l1.81,1.182C57.809,83.295,59.058,82.088,58.776,82.32Zm30.93-2.961H65.971l4.471-4.471,1.846,1.206a6.074,6.074,0,0,0,4.888,1.255,6.7,6.7,0,0,0,4.078-3.121c.992-1.576,2.688-2.2,4.185-1.1,2.438,1.61,3.623,3.243,6.094,3.366A4.868,4.868,0,0,1,89.706,79.359Zm.509-6.38c-3.15-2.326-3.026-2.24-3.2-2.363-2.721-1.858-6.276-1.11-8.265,2.035a3.778,3.778,0,0,1-2.2,1.8c-1.3.287-1.448-.059-8.719-4.815a5.486,5.486,0,0,0-6.648.383l-5.33,4.336-.032.026-.007.006L55.8,74.4l0,0,0,0-.007.006-.03.025a2.578,2.578,0,0,1-3.318.095c-6.171-4.574-7.1-5.7-9.5-5.721-2.033-.014-3.315.984-4.905,2.333l-1.664,1.321V69.072c0-3.919.841-2.657,52.315-2.657A7.787,7.787,0,0,0,93.6,64.69a5.831,5.831,0,0,1,1.3,6.165C94.1,73.081,92.05,74.332,90.216,72.979Z" transform="translate(291 1446.162)"/><path d="M357.122,58.193c-.879.83-.968,2.176-.264,4,.834,2.161,2.092,4.071,4.4,4.071a3.705,3.705,0,0,0,2.686-6.241h0C363.1,59.133,359.108,56.315,357.122,58.193Zm4.11,5.11a.736.736,0,0,1-.516-.231,7.544,7.544,0,0,1-1.255-2.4,7.545,7.545,0,0,1,2.329,1.389A.74.74,0,0,1,361.231,63.3Z" transform="translate(4.262 1416.616)"/><path d="M299.075,113.161a3.7,3.7,0,1,0,6.908-2.653h0c-.439-1.143-3.057-5.268-5.61-4.288S298.637,112.018,299.075,113.161Zm2.519-3.762a7.549,7.549,0,0,1,1.625,2.171h0a.739.739,0,0,1-1.38.53A7.547,7.547,0,0,1,301.594,109.4Z" transform="translate(50.76 1377.587)"/><path d="M237.067,60.02a3.7,3.7,0,0,0,7.4,0c0-1.224-.966-6.014-3.7-6.014S237.067,58.8,237.067,60.02Zm3.7.739a.74.74,0,0,1-.739-.739,7.542,7.542,0,0,1,.739-2.609,7.538,7.538,0,0,1,.739,2.609A.74.74,0,0,1,240.767,60.759Z" transform="translate(100.264 1419.476)"/><path d="M176.671,107.576c-1.347,1.8-2.311,3.851-1.164,5.8a3.705,3.705,0,0,0,6.77-.954c.306-1.185.569-6.064-2.078-6.748C179.028,105.37,177.841,106.01,176.671,107.576Zm2.739,4.1a.739.739,0,1,1-1.431-.37,7.539,7.539,0,0,1,1.368-2.341A7.542,7.542,0,0,1,179.41,111.68Z" transform="translate(150.203 1377.966)"/><path d="M113.636,59.409a3.7,3.7,0,0,0,6.66,3.226c.645-1.331,1.634-5.891-.708-7.025C117.294,54.5,114.323,57.991,113.636,59.409Zm4,1.935a.739.739,0,1,1-1.33-.645,7.543,7.543,0,0,1,1.8-2.026A7.552,7.552,0,0,1,117.631,61.344Z" transform="translate(199.872 1418.359)"/></g></svg>