<svg xmlns="http://www.w3.org/2000/svg" width="61" height="61" viewBox="0 0 61 61"><defs><style>.a{fill:#fa0;stroke:#fa0;}</style></defs><g transform="translate(0.5 0.5)"><path class="a" d="M30,0A30,30,0,1,0,60,30,30.034,30.034,0,0,0,30,0Zm0,58A28,28,0,1,1,58,30,28.032,28.032,0,0,1,30,58Z"/><path class="a" d="M31,26.021V15.879a1,1,0,1,0-2,0V26.021a4,4,0,0,0-2.858,2.858H19a1,1,0,0,0,0,2h7.142A3.992,3.992,0,1,0,31,26.021Zm-1,5.858a2,2,0,1,1,2-2A2,2,0,0,1,30,31.879Z"/><path class="a" d="M30,9.879a1,1,0,0,0,1-1v-1a1,1,0,0,0-2,0v1A1,1,0,0,0,30,9.879Z"/><path class="a" d="M30,49.879a1,1,0,0,0-1,1v1a1,1,0,0,0,2,0v-1A1,1,0,0,0,30,49.879Z"/><path class="a" d="M52,28.879H51a1,1,0,0,0,0,2h1a1,1,0,0,0,0-2Z"/><path class="a" d="M9,28.879H8a1,1,0,1,0,0,2H9a1,1,0,0,0,0-2Z"/><path class="a" d="M44.849,13.615l-.707.707a1,1,0,1,0,1.414,1.414l.707-.707a1,1,0,1,0-1.414-1.414Z"/><path class="a" d="M14.444,44.021l-.707.707a1,1,0,1,0,1.414,1.414l.707-.707a1,1,0,0,0-1.414-1.414Z"/><path class="a" d="M45.556,44.021a1,1,0,0,0-1.414,1.414l.707.707a1,1,0,0,0,1.414-1.414Z"/><path class="a" d="M15.151,13.615a1,1,0,1,0-1.414,1.414l.707.707a1,1,0,1,0,1.414-1.414Z"/></g></svg>