<svg xmlns="http://www.w3.org/2000/svg" width="69.558" height="115.933" viewBox="0 0 69.558 115.933"><defs><style>.a{fill:#e9686a;}.b{fill:#fdbd40;}.c{fill:#f98c96;}.d{fill:#fff;}.e{fill:#e97424;}.f{fill:#ffd782;}</style></defs><g transform="translate(-1049 -1455)"><path class="a" d="M178.513,119.467l-5.8-1.932c4.268,0,7.729-1.528,7.729-5.8a7.729,7.729,0,0,0-7.729-7.729H149.53a7.729,7.729,0,0,0-7.729,7.729c0,4.268,3.461,9.661,7.729,9.661l-5.8-1.932a7.729,7.729,0,1,0,0,15.457h34.779a7.729,7.729,0,0,0,0-15.457Z" transform="translate(922.656 1376.111)"/><g transform="translate(1050.932 1522.628)"><path class="b" d="M363.869,281.942V280.01L360.005,303.2Z" transform="translate(-298.176 -280.01)"/><path class="b" d="M104.005,280.01,123.327,291.6l3.864,34.779H111.734Z" transform="translate(-104.005 -280.01)"/></g><g transform="translate(1050.932 1456.933)"><path class="c" d="M199.244,10.694l-6.726,13.454a4.867,4.867,0,0,0,4.353,7.043h13.452a4.867,4.867,0,0,0,4.353-7.043L207.95,10.694a4.867,4.867,0,0,0-8.706,0Z" transform="translate(-170.75 -8.003)"/><path class="c" d="M161.97,232.01H111.734a7.729,7.729,0,0,0-7.729,7.729V243.6L123.327,255.2,136.852,243.6,150.377,255.2,169.7,243.6v-3.864A7.729,7.729,0,0,0,161.97,232.01Z" transform="translate(-104.005 -177.907)"/></g><g transform="translate(1070.253 1485.93)"><path class="d" d="M209.327,137.711a2.037,2.037,0,0,1-.531-.073c-.133-.041-13.562-3.864-23.033-5.762a1.932,1.932,0,0,1,.757-3.787c9.626,1.932,23.2,5.8,23.339,5.831a1.932,1.932,0,0,1-.531,3.791Z" transform="translate(-184.208 -128.063)"/><path class="d" d="M207.188,177.668a1.931,1.931,0,0,1-.508-.068l-21.254-5.8a1.933,1.933,0,1,1,1.016-3.729h0l21.254,5.8a1.932,1.932,0,0,1-.508,3.8Z" transform="translate(-184.001 -158.359)"/></g><path class="b" d="M283.869,291.6l-3.864,34.779h15.457l7.729-46.372Z" transform="translate(813.435 1242.618)"/><path class="e" d="M184.005,291.6,197.53,280.01,211.055,291.6l-3.864,34.779H187.869Z" transform="translate(886.249 1242.618)"/><g transform="translate(1060.593 1516.832)"><g transform="translate(0)"><path class="f" d="M144.005,256.01h3.864v3.864h-3.864Z" transform="translate(-144.005 -256.01)"/></g><g transform="translate(7.729 3.864)"><path class="f" d="M176.005,272.01h3.864v3.864h-3.864Z" transform="translate(-176.005 -272.01)"/></g><g transform="translate(30.915)"><path class="f" d="M272.005,256.01h3.864v3.864h-3.864Z" transform="translate(-272.005 -256.01)"/></g><g transform="translate(38.643 3.864)"><path class="f" d="M304.005,272.01h3.864v3.864h-3.864Z" transform="translate(-304.005 -272.01)"/></g></g><path d="M155.9,54.1h-.05a9.56,9.56,0,0,0,1.982-5.8,9.678,9.678,0,0,0-8.589-9.6,6.929,6.929,0,0,0,2.792-5.854,9.643,9.643,0,0,0-8.467-9.541,6.743,6.743,0,0,0,.019-6.1L136.865,3.76a6.8,6.8,0,0,0-12.161,0l-6.726,13.452a6.743,6.743,0,0,0,.019,6.1,9.643,9.643,0,0,0-8.467,9.541,12.855,12.855,0,0,0,1.638,6.055,9.678,9.678,0,0,0-7.435,9.4,9.56,9.56,0,0,0,1.982,5.8h-.05a9.672,9.672,0,0,0-9.661,9.661v5.8a1.886,1.886,0,0,0,.031.346l7.729,44.411a1.932,1.932,0,0,0,1.9,1.615H155.9a1.932,1.932,0,0,0,1.905-1.615l7.729-44.411a1.885,1.885,0,0,0,.027-.346v-5.8A9.673,9.673,0,0,0,155.9,54.1Zm-36.611,25.92,11.493-9.85,11.493,9.854-3.571,32.041H122.862Zm2.143-61.086L128.16,5.49a2.933,2.933,0,0,1,5.248,0l6.726,13.448a2.935,2.935,0,0,1-2.624,4.251H124.058a2.935,2.935,0,0,1-2.624-4.251ZM107.6,48.306a5.8,5.8,0,0,1,5.5-5.8l1.9.632a7.759,7.759,0,0,0,3.824,1.264l21.111,5.758a1.933,1.933,0,0,0,1.016-3.729l-21.217-5.8-2.956-.985a9.352,9.352,0,0,1-3.385-6.8,5.8,5.8,0,0,1,5.8-5.8h23.186a5.8,5.8,0,0,1,5.8,5.8c0,.943-.012,3.772-5.553,3.864-1.944-.549-14.167-3.974-23.051-5.75a1.932,1.932,0,0,0-.757,3.787c9.45,1.892,22.832,5.7,23.028,5.76l5.723,1.907a1.933,1.933,0,0,0,.611.093,5.8,5.8,0,1,1,0,11.593H113.395a5.8,5.8,0,0,1-5.8-5.8ZM99.869,63.764a5.8,5.8,0,0,1,5.8-5.8H155.9a5.8,5.8,0,0,1,5.8,5.8v2.771L144.5,76.847,132.034,66.162a1.932,1.932,0,0,0-2.512,0L117.066,76.847l-17.2-10.312Zm7.433,48.3-6.772-40.63,14.914,8.942,3.52,31.688Zm46.963,0H142.6l3.52-31.688,14.914-8.948Z" transform="translate(952.995 1455)"/><path d="M218.067,67.874a1.932,1.932,0,1,0,0-3.864h-.019a1.932,1.932,0,1,0,.019,3.864Z" transform="translate(861.887 1406.45)"/><path d="M250.067,75.874a1.932,1.932,0,1,0,0-3.864h-.019a1.932,1.932,0,1,0,.019,3.864Z" transform="translate(837.615 1400.382)"/><path d="M234.067,51.874a1.932,1.932,0,1,0,0-3.864h-.019a1.932,1.932,0,1,0,.019,3.864Z" transform="translate(849.751 1418.585)"/><path d="M144.005,256.01h3.864v3.864h-3.864Z" transform="translate(916.588 1260.822)"/><path d="M176.005,272.01h3.864v3.864h-3.864Z" transform="translate(892.317 1248.686)"/><path d="M272.005,256.01h3.864v3.864h-3.864Z" transform="translate(819.503 1260.822)"/><path d="M304.005,272.01h3.864v3.864h-3.864Z" transform="translate(795.231 1248.686)"/></g></svg>