<svg xmlns="http://www.w3.org/2000/svg" width="73.144" height="70.212" viewBox="0 0 73.144 70.212"><defs><style>.a{fill:#a80e0e;}</style></defs><path class="a" d="M73,48.747A28.834,28.834,0,0,0,50.581,23.463v-3.63a4.857,4.857,0,0,0-1.172-9.571H39.122a4.857,4.857,0,0,0-1.172,9.571v3.64a28.686,28.686,0,0,0-14.069,7.739,29,29,0,0,0-2.426,2.753c-.036,0-.072-.005-.108-.005H11.167a1.429,1.429,0,1,0,0,2.857h8.345a28.639,28.639,0,0,0-2.535,5.491H1.429a1.429,1.429,0,1,0,0,2.857H16.17a29.047,29.047,0,0,0-.709,5.491H9.143a1.429,1.429,0,1,0,0,2.857h6.363A29,29,0,0,0,16.4,59H7.143a1.429,1.429,0,1,0,0,2.857H17.31A28.854,28.854,0,0,0,41.435,80.335q1.416.14,2.831.139A28.927,28.927,0,0,0,60.015,75.82a1.429,1.429,0,0,0-1.559-2.394,26,26,0,1,1,7.658-7.668,1.429,1.429,0,1,0,2.4,1.556A28.95,28.95,0,0,0,73,48.747ZM37.122,15.119a2,2,0,0,1,2-2H49.408a2,2,0,0,1,0,4H39.122A2,2,0,0,1,37.122,15.119Zm3.685,7.862v-3h6.916v3A29.109,29.109,0,0,0,40.807,22.982Z" transform="translate(0 -10.262)"/><path class="a" d="M437.2,425.5a1.429,1.429,0,1,0,1.01.419A1.436,1.436,0,0,0,437.2,425.5Z" transform="translate(-373.515 -366.179)"/><path class="a" d="M177.034,144.609A22.162,22.162,0,1,0,199.2,166.771,22.187,22.187,0,0,0,177.034,144.609Zm0,41.467a19.3,19.3,0,1,1,19.3-19.3A19.327,19.327,0,0,1,177.034,186.076Z" transform="translate(-132.747 -125.416)"/><path class="a" d="M273.64,219.83l-7.076,7.076a4.428,4.428,0,0,0-3.922,0l-3.167-3.167a1.429,1.429,0,1,0-2.02,2.02l3.167,3.167a4.439,4.439,0,1,0,7.963,0l6.868-6.868h0l.208-.208a1.429,1.429,0,1,0-2.02-2.02ZM264.6,232.469a1.582,1.582,0,1,1,1.582-1.582A1.584,1.584,0,0,1,264.6,232.469Z" transform="translate(-220.316 -189.532)"/><path class="a" d="M400.407,289.86h-1.324a1.429,1.429,0,1,0,0,2.857h1.324a1.429,1.429,0,0,0,0-2.857Z" transform="translate(-340.845 -249.916)"/><path class="a" d="M195.834,289.616h-1.323a1.429,1.429,0,1,0,0,2.857h1.323a1.429,1.429,0,1,0,0-2.857Z" transform="translate(-165.498 -249.707)"/><path class="a" d="M301.552,187a1.429,1.429,0,0,0,1.429-1.429v-1.323a1.429,1.429,0,0,0-2.857,0v1.323A1.429,1.429,0,0,0,301.552,187Z" transform="translate(-257.247 -158.167)"/><path class="a" d="M301.308,387.393a1.429,1.429,0,0,0-1.429,1.429v1.323a1.429,1.429,0,1,0,2.857,0v-1.323A1.429,1.429,0,0,0,301.308,387.393Z" transform="translate(-257.038 -333.516)"/><path class="a" d="M1.429,351.44a1.429,1.429,0,1,0,1.01,2.439,1.429,1.429,0,0,0-1.01-2.439Z" transform="translate(0 -302.699)"/></svg>