<svg xmlns="http://www.w3.org/2000/svg" width="74.838" height="76.273" viewBox="0 0 74.838 76.273"><defs><style>.a{fill:#a80e0e;}</style></defs><g transform="translate(-358 -6880)"><path class="a" d="M226.767,48.071a4.4,4.4,0,1,0-4.4-4.4A4.408,4.408,0,0,0,226.767,48.071Zm0-6.29a1.887,1.887,0,1,1-1.887,1.887A1.889,1.889,0,0,1,226.767,41.781Z" transform="translate(195.813 6844.047)"/><path class="a" d="M55.17,159.668a4.4,4.4,0,1,0-4.4,4.4A4.408,4.408,0,0,0,55.17,159.668Zm-6.29,0a1.887,1.887,0,1,1,1.887,1.887A1.889,1.889,0,0,1,48.88,159.668Z" transform="translate(316.463 6764.527)"/><path class="a" d="M193.259,31.584a1.424,1.424,0,1,0-1.425-1.424A1.425,1.425,0,0,0,193.259,31.584Z" transform="translate(216.741 6851.265)"/><path class="a" d="M257.259,87.584a1.424,1.424,0,1,0-1.425-1.424A1.425,1.425,0,0,0,257.259,87.584Z" transform="translate(172.869 6812.876)"/><path class="a" d="M47.834,110.16a1.425,1.425,0,1,0,1.425-1.425A1.425,1.425,0,0,0,47.834,110.16Z" transform="translate(315.455 6796.424)"/><path class="a" d="M73.259,35.584a1.424,1.424,0,1,0-1.425-1.424A1.425,1.425,0,0,0,73.259,35.584Z" transform="translate(299.003 6848.523)"/><path class="a" d="M36.006,44.686a1.258,1.258,0,0,0,1.779-1.779l-1.421-1.421,1.421-1.421a1.258,1.258,0,0,0-1.779-1.779l-1.421,1.421-1.421-1.421a1.258,1.258,0,0,0-1.779,1.779l1.421,1.421-1.421,1.421a1.258,1.258,0,1,0,1.779,1.779l1.421-1.421Z" transform="translate(326.985 6844.97)"/><path class="a" d="M211.384,96.686a1.257,1.257,0,0,0,1.779,0l1.422-1.421,1.421,1.421a1.258,1.258,0,0,0,1.779-1.779l-1.421-1.421,1.421-1.421a1.258,1.258,0,0,0-1.779-1.779l-1.421,1.421-1.422-1.421a1.258,1.258,0,0,0-1.779,1.779l1.421,1.421-1.421,1.421A1.257,1.257,0,0,0,211.384,96.686Z" transform="translate(203.592 6809.324)"/><circle class="a" cx="1.258" cy="1.258" r="1.258" transform="translate(396.163 6911.616)"/><circle class="a" cx="1.258" cy="1.258" r="1.258" transform="translate(383.583 6911.616)"/><path class="a" d="M115.272,87.347h0l8.423-2.456a1.257,1.257,0,0,0,.864-1.529l-.05-.217c-.031-.142-.063-.285-.1-.427a26.867,26.867,0,0,0-12.958-16.143,1.257,1.257,0,0,0-1.708.5l-10.366,18.9h0v0l-.338.617-9.22-4.078V80.57a18.821,18.821,0,0,0,8.7-11.063,4.217,4.217,0,0,0,2.366-.677,4.467,4.467,0,0,0,2.112-3.171,4.388,4.388,0,0,0-3.111-4.765V48.047a8.469,8.469,0,0,0-7.094-8.431A34.1,34.1,0,0,1,84.307,37a4.774,4.774,0,0,0-4.069.1,26.9,26.9,0,0,1-7.274,2.522,8.587,8.587,0,0,0-7.053,8.422V60.891a4.39,4.39,0,0,0-3.142,4.375,4.47,4.47,0,0,0,2.043,3.476,3.962,3.962,0,0,0,2.405.767A18.771,18.771,0,0,0,75.981,80.8c0,.011-.006.019-.006.031v1.685l-9.313,4.119h0l-.508.225a13.06,13.06,0,0,0-7.788,11.927v10.347a1.258,1.258,0,0,0,1.258,1.258h62.9a1.258,1.258,0,0,0,1.258-1.258v-15.1a1.258,1.258,0,0,0-1.258-1.258H105.951a13.008,13.008,0,0,0-1.517-2.273Zm-24.2,5.433a1.258,1.258,0,0,0-1.258,1.258v13.837H68.428V88.6l7.548-3.338v3.112a6.919,6.919,0,0,0,13.837,0V85.266l4.972,2.2L97.36,88.6v1.038l-.451.822a1.258,1.258,0,0,0,.122,1.393,1.234,1.234,0,0,0,.329.26v.665Zm30.191,10.064H92.329v-2.516h28.933Zm-20.212-14.7a4.977,4.977,0,0,0,1.235.156,5.037,5.037,0,0,0,1.413-.2l-3.121.91Zm3.387-6.174a2.483,2.483,0,0,1-2.085,3.8Zm9.175,2.853a1.258,1.258,0,0,1,.253-2.311,1.278,1.278,0,0,1,.354-.051,1.261,1.261,0,0,1,1.206.907h0a1.257,1.257,0,0,1-.854,1.559h0A1.251,1.251,0,0,1,113.611,84.827Zm8.2-2.005-3.835,1.118a3.774,3.774,0,1,0-6.807,1.984L103.7,88.1a5.038,5.038,0,0,0,3.421-6.238,4.985,4.985,0,0,0-1.393-2.243l1.253-2.284a4.965,4.965,0,0,0,2.854.905,5.019,5.019,0,0,0,4.856-6.329A24.336,24.336,0,0,1,121.806,82.822Zm-11.255-12a2.466,2.466,0,0,1,1.7,1.678,2.519,2.519,0,0,1-1.711,3.12,2.469,2.469,0,0,1-2.33-.534ZM68.428,59.267V54.561c9.788-4.8,19.268-4.8,28.933,0v4.826A38.106,38.106,0,0,0,82.3,56.061a31.725,31.725,0,0,0-13.871,3.206Zm27.259,2.146c-6.443,2.586-12.8-.519-16.152-2.727A33.487,33.487,0,0,1,95.686,61.413ZM73.421,42.09a29.4,29.4,0,0,0,7.957-2.754,2.232,2.232,0,0,1,1.9-.042,36.538,36.538,0,0,0,9.1,2.8,5.963,5.963,0,0,1,4.981,5.948v3.728a33.438,33.438,0,0,0-28.933.01V48.038A6.07,6.07,0,0,1,73.421,42.09ZM69.4,67.821a1.258,1.258,0,0,0-1.633-.94,1.563,1.563,0,0,1-1.547-.225,1.988,1.988,0,0,1-.936-1.48,1.887,1.887,0,0,1,1.886-1.958,1.24,1.24,0,0,0,1.267-1.126,30.9,30.9,0,0,1,7.605-2.844c3.886,3.152,9.1,5.665,14.5,5.665A16.22,16.22,0,0,0,98.05,63.1a1.328,1.328,0,0,0,.568.123,1.887,1.887,0,0,1,1.872,2.133,1.936,1.936,0,0,1-.945,1.342,1.621,1.621,0,0,1-1.55.181,1.257,1.257,0,0,0-1.647.918A16.287,16.287,0,0,1,85.5,79.782l-.559.181a7.581,7.581,0,0,1-4.617.057A16.261,16.261,0,0,1,69.4,67.821ZM79.553,82.416a9.608,9.608,0,0,0,2.949.459,10.436,10.436,0,0,0,3.214-.518l.559-.181c.351-.114.681-.27,1.022-.4v6.605a4.4,4.4,0,0,1-8.806,0V82C78.845,82.137,79.187,82.3,79.553,82.416ZM60.88,98.787a10.527,10.527,0,0,1,5.032-8.957v18.046H60.88Zm60.382,9.09H92.329V105.36h28.933Zm0-10.064H92.329V95.3h28.933Zm-18.276-5.032H99.876v-.945l1.857-.542a10.5,10.5,0,0,1,1.252,1.487Z" transform="translate(308.237 6845.881)"/></g></svg>