<svg xmlns="http://www.w3.org/2000/svg" xmlns:xlink="http://www.w3.org/1999/xlink" width="149.552" height="103.101" viewBox="0 0 149.552 103.101"><defs><style>.a{fill:url(#a);}.b{fill:url(#b);}.c{fill:#3d5107;}.d{fill:#a80e0e;}.e{fill:url(#c);}.f{fill:url(#d);}.g{fill:url(#e);}.h{fill:url(#f);}.i{fill:#fa0;}.j{fill:#e2aa48;}.k{fill:url(#h);}.l{fill:url(#i);}.m{fill:#db1d19;}.n{fill:#af130e;}.o{fill:url(#m);}.p{fill:#b2dd14;}</style><linearGradient id="a" x1="0.214" y1="1.402" x2="0.895" y2="-0.175" gradientUnits="objectBoundingBox"><stop offset="0.007" stop-color="#dc3728"/><stop offset="1" stop-color="#ec9f23"/></linearGradient><linearGradient id="b" x1="0.432" y1="0.97" x2="0.739" y2="-0.072" gradientUnits="objectBoundingBox"><stop offset="0.007" stop-color="#be3728"/><stop offset="1" stop-color="#ec9f23"/></linearGradient><linearGradient id="c" x1="0.395" y1="0.513" x2="0.527" y2="0.32" gradientUnits="objectBoundingBox"><stop offset="0" stop-color="#dc3728"/><stop offset="1" stop-color="#fa0"/></linearGradient><linearGradient id="d" x1="0.381" y1="1.027" x2="0.584" y2="0.252" xlink:href="#a"/><linearGradient id="e" x1="0.5" y1="0.164" x2="0.5" y2="1.007" gradientUnits="objectBoundingBox"><stop offset="0.007" stop-color="#8ac340"/><stop offset="0.989" stop-color="#68931c"/></linearGradient><linearGradient id="f" x1="0" y1="0.5" x2="1" y2="0.5" xlink:href="#a"/><linearGradient id="h" x1="-1.87" y1="-3.665" x2="3.229" y2="-3.665" xlink:href="#a"/><linearGradient id="i" x1="-2.832" y1="-11.108" x2="1.423" y2="-11.108" xlink:href="#a"/><linearGradient id="m" x1="0.5" y1="0.833" x2="0.5" y2="-0.195" xlink:href="#e"/></defs><g transform="translate(-235 -2467.316)"><g transform="translate(235 2467.316)"><path class="a" d="M1155.923,135.611a3.067,3.067,0,0,1,.048-.536,2.154,2.154,0,0,0-.187-1.336,18.718,18.718,0,0,0-1.8-2.688,2,2,0,0,0-1.245-.583,3.059,3.059,0,0,1-2.255-2.152,2.524,2.524,0,0,0-.7-1.158,22.909,22.909,0,0,0-3.059-1.789,4.386,4.386,0,0,0-1.561-.071,3.06,3.06,0,0,1-3.092-1.112,2,2,0,0,0-1.176-.864,35.9,35.9,0,0,0-3.641-.674,1.926,1.926,0,0,0-1.339.4,3.051,3.051,0,0,1-3.47-.365,1.7,1.7,0,0,0-1.041-.41q-2.259,0-4.312.2a1.722,1.722,0,0,0-1.047.629,3.054,3.054,0,0,1-3.849.607,1.406,1.406,0,0,0-1.063-.138,28.509,28.509,0,0,0-3.5,1.217,1.378,1.378,0,0,0-.617.791,3.056,3.056,0,0,1-3.4,2.021,1.7,1.7,0,0,0-1.218.237,18.476,18.476,0,0,0-2.806,2.725,1.606,1.606,0,0,0-.277,1.164,3.054,3.054,0,0,1-1.6,2.689,2.048,2.048,0,0,0-.776.786,11.749,11.749,0,0,0-.406,4.113c4,1.882,6.561-1.838,8.97-1.838,2.889,0,4.419,3.468,6.685,3.468,1.624,0,5.66-3.468,7.21-3.468,2.95,0,4.967,4.532,9.52,4.532,2.181,0,5.708-2.309,8.273-2.309,4.233,0,6.542,3.27,10.638,1.026a9.728,9.728,0,0,0-.174-1.811,2.444,2.444,0,0,0-.77-1.07A3.048,3.048,0,0,1,1155.923,135.611Z" transform="translate(-1048.954 -105.405)"/><path class="b" d="M1123.356,130.127s-5.558,1.368-9.021,4.7c0,0-3.485,3.637-3.008,6.4.428,2.48,2.018-.289,6.172-.289,4.275,0,5.344,3.1,7.439,3.1,1.881,0,4.446-3.1,7.31-3.1,3.891,0,6.114,4.315,9.919,4.315,2.437,0,4.6-2.137,7.432-2.137,2.6,0,10.146,3.773,8.992.352-.611-1.81-3.426-4.542-15.055-5.782C1143.536,137.695,1131.607,128.887,1123.356,130.127Z" transform="translate(-1051.615 -109.733)"/><path class="c" d="M1110.8,169.661s1.667.257.983.9l8.081,1.539,6.456-1.111,15.349-.085,6.84,1.582s9.32-1.411,9.448-1.368,2.352-.256,2.352-.256-1.24-.47-.085-1.111.47-1.24.47-1.24l-14.28-.128-6.413,1.2-4.49-1.582-7.524-.641-5.045.214-8.38-.043Z" transform="translate(-1051.346 -130.627)"/><g transform="translate(0 27.363)"><path class="d" d="M1009.742,178.335c-.47,0-.086-.256-.086-.256,9.577-3.592,21.933-9.235,21.933-17.358,0-8.209-3.378-14.622-13.681-14.622-20.821,0-42.07,18-42.07,28.9,0,4.582,2.736,5.515,2.736,5.515-1.8-15.006,28.559-27.576,40.787-27.576,8.434,0,6.98,5.089,1.924,10.517-6.369,6.837-18.4,14.353-23.114,14.2,3.077-3.857,10.059-10.2,17.342-14.838-.128-1.069-1.625-4.062-3.677-4.062-3.969,0-13.124,8.21-20.272,16.762-.518.27-1.685.538-3.97-.387a5.724,5.724,0,0,0-.165,5.7c-3.289,4.578-5.525,8.769-5.525,11.277a8.91,8.91,0,0,0,4.236,7.353,1.193,1.193,0,0,0,.428-.47c.763-5.852,6.315-12.907,7.961-14.89a2.651,2.651,0,0,0,1.445,2.192c.6-.385,6.712-4.571,11.458-4.571,2.758,0,4.331,1,4.815,2.444-12.041,5.111-20.835,10.623-23.755,15.337-3.525,5.693-.4,10.432,4.618,10.432,6.071,0,25.866-13.082,25.866-24.711C1018.977,179.361,1012.136,177.779,1009.742,178.335Zm-14.75,22.4c-3.7,0,9.673-9.57,15.793-11.806C1006.6,194.248,996.3,200.738,994.992,200.738Z" transform="translate(-975.838 -146.099)"/><path class="d" d="M1125.893,217.6a69.073,69.073,0,0,0-7.439.422c5.261-8.929,9.919-17.355,14.088-19.489-.278-2.907-3.164-2.1-3.164-2.1-.6.085-.428-.342-.428-.342,0-1.71-1.111-5.173-4.233-5.173-3.952,0-9.7,4.912-13.8,10.493-.325.38-.7.833-1.124,1.35-1.155,1.411-7.086,8.358-8.85,7.781-.522-.171.062-1.963,1.6-3.912,2.868-3.628,7.984-7.824,7.984-11.191,0-4.778-9.748-3.014-9.16-8.412-.214-.427-.727-.171-.727-.171-.257.171-1.5,1.582-1.411,4.532,0,.025,0,.05,0,.074a5.118,5.118,0,0,0,1.75,4.03c-.683,3.623-2.754,4.529-3.741,4.755a6.472,6.472,0,0,0,1.561-3.131,3.288,3.288,0,0,0-4.789-3.035c-.8,2.843-11.7,17.187-14.536,17.187-1,0-.279-1.664,1.518-3.837,1.976-2.39,5.161-5.43,6.605-8.337,1.493-3.005.851-6.595-1.71-6.595-4.446,0-11.572,8.422-11.572,9.448,0,.481.876.6.876.6.342-.342,4.905-4.254,6.025-4.254,1.1,0,.182,1.872-1.731,4.2-2.139,2.6-5.46,5.847-7.407,9.043-2.29,3.757-2.475,7.514.727,7.514,3.726,0,9.192-6.37,9.449-6.67s.256.043.256.043c-.78,1.2-1.261,6.413,2.95,6.413a2.667,2.667,0,0,0,2.095-.812c-2.24-4.412,4.329-11.182,8.355-16.086a3.19,3.19,0,0,0,.474.043c2.63.064,5.922-3.795,6.52-4.436s2.352-.567,2.352-.128c0,1.453-7.508,6.752-11.18,12.708-2.528,4.1-2.812,8.626.706,8.626,4.865,0,11.079-8.629,11.983-9.922-1.749,4.808-1.1,8.641,1.529,8.641,3.461,0,8.8-6.671,9.1-7.013s.45-.565.6-.513c.337.118-.043.6-.043.6-1.626,2.714-3.432,5.619-5.4,8.34-16.638,3.062-32.574,11.18-32.574,19.821,0,2.814,4.089,5.893,7.231,5.893,9.043,0,20.05-8.711,26.807-19.3q.494-.774.98-1.559c10.808-.855,21.495,1.941,24.159,10.537.043.47.085.385.085.385C1144.62,232.991,1150.712,217.6,1125.893,217.6Zm-18.79,7.7c-9.17,8.681-19.239,12.505-19.239,10.474,0-2.539,8.31-7.9,18.341-10.539q.64-.169,1.29-.321C1107.365,225.039,1107.235,225.171,1107.1,225.3Zm5.964-15.614c-1.673,0,.53-4.164,3.784-7.858,2.732-3.1,6.241-5.836,8.465-5.836.376,0,1.155.128,1.186,1.315C1123.1,200,1114.927,209.682,1113.067,209.682Z" transform="translate(-1028.736 -168.861)"/><path class="d" d="M1247.4,188.49c-3.232,0-5.657,2.309-7.314,5.862a6.759,6.759,0,0,0-.585,1.182c-2.213,5.387-11.576,13.082-12.366,12.623-.876-.509.752-2.834,3.228-5.537,2.646-2.889,6.05-5.451,6.05-7.974,0-4.789-9.994-4.275-7.183-10.6.414-.93-.641-1.453-.641-1.453a8.011,8.011,0,0,0-4.318,7.182,4.722,4.722,0,0,0,1.008,3.23c-.666,2.263-11.244,15.881-17.126,15.881-2.651,0-1.581-3.709-1.405-4.2.288-.8.807-.508.807-.508a1.77,1.77,0,0,0,1.069.256c2.693,0,9.3-4.147,11.757-8.294,1.884-3.185,1.619-6.627-2.1-6.627-6.122,0-13.709,7.643-16.717,14.622-2.306,5.351-1.773,10.475,3.292,10.475,9.647,0,20.933-16.981,23.27-20.146,1.608.341,3.109.3,3.109,1.163,0,2.084-7.706,6.885-11.2,12.089-2.456,3.656-2.277,7.664,1.71,7.664,4.39,0,13.822-10.342,16.09-13.016a35.139,35.139,0,0,1-1.724,5.876c-2.015,5.024-5.18,9.577-8.166,9.577a1.834,1.834,0,0,1-1.924-1.24.516.516,0,0,0-.47-.128c-.6.556-2.245,6.691,4.681,6.691,4.938,0,9.031-4.444,10.967-10.2,1.539-4.573,1.311-9.879,2.565-13.852,1.209-3.831,4-7.1,7.182-7.1C1250.947,192,1250.651,188.49,1247.4,188.49Zm-30.1,5.173c2.768,0-5.376,7.225-7.525,7.225C1207.6,200.888,1214.714,193.663,1217.3,193.663Z" transform="translate(-1101.395 -166.515)"/></g><path class="e" d="M1203.956,115.111c2.736-1.667,8.893-4.574,8.85-9.791,0,0-1.8,3.335-7.768,3.976a11.691,11.691,0,0,0-5.871,1.368c-2.472,1.2-6.327.214-5.6-2.437a3.476,3.476,0,0,1,5.344-1.881s-.342-1.881-3.548-3.036c0,0-6.114-2.864-12.912,1.967,0,0-.983.128-.513-2.18s2.736-5.088,6.327-6.841,8.978-3.036,11.843-2.1a11.728,11.728,0,0,0-8.251-3.677c-5.473-.257-10.277,2.993-10.875,3.335s-6.184,2.864-7.552.171.941-4.618,3.42-5.387,5.387-2.864,4.446-4.617c0,0-.727,2.266-8.252,1.069s-19.88.77-25.567,7.14c0,0-2.181-5.3-7.7-4.874,0,0,4.246,4.746-2.2,11.522,4.682-1.924,9.032-1.86,13.839-1.86,11.63,0,21.387,5.664,26.5,15.135,2.579,4.778,4.219,14.494,1.974,20.522,1.71-1.368,5.876-2.416,7.3-2.394,0,0,4.147-8.722,17.144-8.081a12.028,12.028,0,0,0-1.71-1.881C1201.434,119.172,1201.22,116.778,1203.956,115.111Z" transform="translate(-1066.332 -83.986)"/><path class="f" d="M1134.206,128.047s9.962-3.378,19.453-1.325c0,0,9.156,2.437,13.175,7.268a13.008,13.008,0,0,1,3.784,7.5s.192,1.058-.449,1.058-.513-.459-1.027-1.186-2.229-3.4-9.283-3.485-11.629-5.344-13.681-6.67-6.584-4.446-13.339-2.266C1132.838,128.945,1131.94,128.859,1134.206,128.047Z" transform="translate(-1063.577 -107.525)"/><path class="g" d="M1101.679,158.812a5.127,5.127,0,0,0,3.335,2.908,6.168,6.168,0,0,0,5.686-1.283c1.582-1.368,2.608-1.71,3.891-.128s5,3.121,7.739,1.411a14.256,14.256,0,0,0,2.352-1.411c1.368-.983,2.052-1.539,3.334-.256s4.779,3.848,7.937,3.762c2.209-.06,7.1-2.081,8.444-2.081,4.724,0,9.983,5.159,13.589-1.681a3.092,3.092,0,0,1,.184,1.492,4.369,4.369,0,0,1-4.459,3.6c-1.231,0-3.689-1.368-5.745-1.368-3.035,0-9.32,1.283-13.024,1.283-2.39,0-5.642-.973-8.866-.62-2.99.327-3.576-.278-4.388-.577s-1.726-.353-4.077.16-3.926,1.554-5.323.8c-1.667-.9-4.44.055-5.772.193C1104.657,165.2,1101.322,163.216,1101.679,158.812Z" transform="translate(-1046.228 -125.849)"/><path class="h" d="M1220.053,101.834c4.925-3.67,12.634-5.772,16.353-4.041.707.33.986.4.974.294a12.32,12.32,0,0,0-6.532-2.175c-5.472-.256-10.3,3.011-10.923,3.314-8.936,4.361-10.293-3.068-3.688-5.408a7.816,7.816,0,0,0-6.574,1.315,5.943,5.943,0,0,0-1.8,7.343C1208.184,103.067,1211.16,108.461,1220.053,101.834Z" transform="translate(-1105.318 -89.35)"/><path class="h" d="M1267.888,138.132a7.587,7.587,0,0,0-5.109,1.079c-3.025,1.828-8.412-.866-4.649-4.329-5.3-.576-8.769,4.639-5.567,8.085,3.729,4.014,9.1-.893,10.708-1.79s1.8-1.347,4.233-1.988a17.122,17.122,0,0,0,3.752-1.7A7.38,7.38,0,0,1,1267.888,138.132Z" transform="translate(-1129.969 -112.436)"/><path class="i" d="M1029.855,115.43s-.144,3.335-2.324,3.549c0,0,2.223.128,2.41,2.907,0,0,.342-2.779,2.1-3.121C1032.036,118.765,1029.984,118.466,1029.855,115.43Z" transform="translate(-1004.759 -101.578)"/><path class="i" d="M1037.251,93.11s-.194,5.683-3.7,5.6c0,0,3.852.52,3.725,5.82,0,0-.268-5.523,3.5-5.732C1040.777,98.8,1036.987,98.15,1037.251,93.11Z" transform="translate(-1008.127 -89.09)"/><g transform="translate(32.178 15.157)"><path class="d" d="M1048.883,118.916h2.005v3.393h3.894v-3.393h2.005v9.1h-2.005v-3.933h-3.894v3.933h-2.005Z" transform="translate(-1048.883 -118.685)"/><path class="d" d="M1069.919,123.172a5.136,5.136,0,0,1,.367-1.98,4.337,4.337,0,0,1,1.021-1.51,4.505,4.505,0,0,1,1.555-.958,5.958,5.958,0,0,1,3.933,0,4.506,4.506,0,0,1,1.555.958,4.332,4.332,0,0,1,1.022,1.51,5.53,5.53,0,0,1,0,3.959,4.322,4.322,0,0,1-1.022,1.51,4.493,4.493,0,0,1-1.555.958,5.95,5.95,0,0,1-3.933,0,4.492,4.492,0,0,1-1.555-.958,4.327,4.327,0,0,1-1.021-1.51A5.134,5.134,0,0,1,1069.919,123.172Zm2.082,0a3.342,3.342,0,0,0,.2,1.176,2.7,2.7,0,0,0,.572.926,2.609,2.609,0,0,0,.893.61,3.207,3.207,0,0,0,2.327,0,2.608,2.608,0,0,0,.893-.61,2.7,2.7,0,0,0,.572-.926,3.551,3.551,0,0,0,0-2.345,2.684,2.684,0,0,0-.572-.932,2.615,2.615,0,0,0-.893-.611,3.207,3.207,0,0,0-2.327,0,2.617,2.617,0,0,0-.893.611,2.682,2.682,0,0,0-.572.932A3.357,3.357,0,0,0,1072,123.172Z" transform="translate(-1060.652 -118.391)"/><path class="d" d="M1096,120.69h-2.6v-1.774h7.2v1.774h-2.6v7.326H1096Z" transform="translate(-1073.792 -118.685)"/></g><path class="j" d="M1124.9,147.259a1.646,1.646,0,1,1-1.646-1.646A1.646,1.646,0,0,1,1124.9,147.259Z" transform="translate(-1057.393 -118.464)"/><circle class="j" cx="2.373" cy="2.373" r="2.373" transform="translate(67.936 23.472)"/><path class="j" d="M1123.89,139.427a.9.9,0,1,1-.9-.9A.9.9,0,0,1,1123.89,139.427Z" transform="translate(-1057.664 -114.501)"/><path class="j" d="M1185.122,138.6c.459.475,1.164.219.715-.807a15.849,15.849,0,0,0-8.978-8.465,35.688,35.688,0,0,0-9.812-2.982s-7.081-.513-5.115.128a41.59,41.59,0,0,1,4.66,1.283c2.864.941,6.114,2.693,7.653,5.045s4.788,2.693,7.14,3.634A9.575,9.575,0,0,1,1185.122,138.6Z" transform="translate(-1079.759 -107.576)"/><path class="k" d="M1195.4,139.81a.791.791,0,1,1-.786-.8A.791.791,0,0,1,1195.4,139.81Z" transform="translate(-1097.789 -114.772)"/><path class="l" d="M1202.882,144.884a1.817,1.817,0,1,1-1.741-1.89A1.817,1.817,0,0,1,1202.882,144.884Z" transform="translate(-1100.83 -116.998)"/><g transform="translate(57.245 47.029)"><path class="h" d="M1152.436,192.224c6.8,2.041,6.813,4.777,6.813,4.777a24.282,24.282,0,0,1,6.056-4.356Z" transform="translate(-1131.884 -191.571)"/><path class="h" d="M1110.131,195.4c2.351-2.48,6.028-1.881,6.028-1.881a5.921,5.921,0,0,1,.267-2.429l-10.213-.35c-.385.043-.385.47-.385.47-.017.193-.032.488-.045.833C1109.746,192.11,1110.131,195.4,1110.131,195.4Z" transform="translate(-1105.783 -190.742)"/><path class="h" d="M1211.447,194.306l-7.271-.25a9.019,9.019,0,0,1,2.931,4.526c.513.128,1.4.3,1.574.6,1.069-1.155,3.92-3.463,3.92-3.463v-.727C1212.558,194.264,1211.447,194.306,1211.447,194.306Z" transform="translate(-1160.831 -192.596)"/></g><g transform="translate(59.368 40.552)"><path class="m" d="M1178.235,180.373a.868.868,0,0,0-.77-.834,22.8,22.8,0,0,0-2.971-.085c-.47.085-5.315,4.019-7.539.9a6.953,6.953,0,0,0-3.121-1.283,27.546,27.546,0,0,0-3.241-.181c-.695-.011-2.6,1.985-6.028,1.985a7.02,7.02,0,0,1-5.267-1.76,3.621,3.621,0,0,0-3.89-.684,2.726,2.726,0,0,0,.786,4.6c4.99.193,11.208.4,15.989.586,3.434-1.52,5.873-.76,7.4.285,3.78.145,7.6.265,7.837.275a.637.637,0,0,0,.641-.6C1178.1,183.025,1178.256,180.929,1178.235,180.373Z" transform="translate(-1129.528 -177.209)"/><path class="m" d="M1123.355,176.861s-.765.011-1.491-.032-7.61-.941-10.474-.77a.575.575,0,0,0-.6.556s-.256,3.121-.171,4.062a.632.632,0,0,0,.513.513c.11.011,3.657.131,8.087.3A7.259,7.259,0,0,1,1123.355,176.861Z" transform="translate(-1110.602 -176.038)"/></g><path class="n" d="M1113.121,177.875c3.447,0,4.842,1.812,6.106,2.485,1.519.809,2.918-2.212,2.5-3.014l-2.753-.385S1110.515,177.875,1113.121,177.875Z" transform="translate(-1052.365 -136.003)"/><path class="n" d="M1147.424,178.293a3.674,3.674,0,0,1,2.309,1.325,5.35,5.35,0,0,0,5.686,1.326,7.16,7.16,0,0,1-4.024-1.411C1149.984,178.207,1149.177,177.865,1147.424,178.293Z" transform="translate(-1071.835 -136.65)"/><path class="n" d="M1184.6,180.016a5.574,5.574,0,0,1,2.181,1.475,3.64,3.64,0,0,0,4.489,1.09,3.045,3.045,0,0,1-1.838-1.111C1188.745,180.529,1186.362,179.984,1184.6,180.016Z" transform="translate(-1092.629 -137.711)"/><path class="o" d="M1104.345,177.763a9.252,9.252,0,0,1,5.472-1.945c4.4,0,4.693,1.769,6.164,1.769.965,0,2.825-2.325,5.134-2.325,3.278,0,6.153,2.266,8.9,2.266,3.929,0,4.057-2.352,8.386-2.352,3.014,0,4.168,2.908,7.177,2.908,2.475,0,4.238-2.7,6.9-2.7a5.747,5.747,0,0,1,2.335.439,4.287,4.287,0,0,0,4.532-.9,1.513,1.513,0,0,0-.513-.214c-3.564-1.144-11.6-.342-12.869-.214-2.13.215-7.583-1.272-10.575-.674s-8.324-.352-12.89-.352c-4.169,0-5.387,1.667-10.967.192C1106.878,172.43,1103.924,177.7,1104.345,177.763Z" transform="translate(-1047.712 -134.048)"/><path class="p" d="M1127.818,161.359a4.993,4.993,0,0,0,3.72,2.212s-2.822.545-4.393-1.315c0,0-.641-.705-.449-1.186S1127.434,160.877,1127.818,161.359Z" transform="translate(-1060.219 -126.974)"/><path class="p" d="M1162.552,164.447a10.433,10.433,0,0,1-3.335-2.181c-1.058-1.251-1.924-1.122-1.988-.545S1157.325,163.26,1162.552,164.447Z" transform="translate(-1077.316 -127.241)"/><path class="p" d="M1204.16,167.621a28.709,28.709,0,0,0-5.173-1.24c-1.2.043-1.155.6.128.684S1203.476,167.278,1204.16,167.621Z" transform="translate(-1100.198 -130.083)"/><path class="p" d="M1202.868,178.125s-1.115.6-1.766,1.048c-.719.492-2.081,1.389-2.637,1.133s.086-.727.94-.983S1202.7,178.21,1202.868,178.125Z" transform="translate(-1100.275 -136.654)"/><path class="p" d="M1169.381,177.037a16.369,16.369,0,0,0-2.394,1.026,7.415,7.415,0,0,1-3.164.983c-.513-.128-.342-.684.684-.855a15.183,15.183,0,0,0,2.693-.77A5.883,5.883,0,0,1,1169.381,177.037Z" transform="translate(-1080.854 -136.036)"/><path class="p" d="M1134.622,177.543a11.475,11.475,0,0,0-2.651,1.5c-.855.77-.983.214-.983.043S1132.356,178.184,1134.622,177.543Z" transform="translate(-1062.64 -136.328)"/></g></g></svg>