<svg xmlns="http://www.w3.org/2000/svg" xmlns:xlink="http://www.w3.org/1999/xlink" width="212.053" height="146.188" viewBox="0 0 212.053 146.188"><defs><style>.a{fill:url(#a);}.b{fill:url(#b);}.c{fill:#3d5107;}.d{fill:#fff;}.e{fill:url(#c);}.f{fill:url(#d);}.g{fill:url(#e);}.h{fill:url(#f);}.i{fill:#fa0;}.j{fill:#e2aa48;}.k{fill:url(#h);}.l{fill:url(#i);}.m{fill:#db1d19;}.n{fill:#af130e;}.o{fill:url(#m);}.p{fill:#b2dd14;}</style><linearGradient id="a" x1="0.214" y1="1.402" x2="0.895" y2="-0.175" gradientUnits="objectBoundingBox"><stop offset="0.007" stop-color="#dc3728"/><stop offset="1" stop-color="#ec9f23"/></linearGradient><linearGradient id="b" x1="0.432" y1="0.97" x2="0.739" y2="-0.072" gradientUnits="objectBoundingBox"><stop offset="0.007" stop-color="#be3728"/><stop offset="1" stop-color="#ec9f23"/></linearGradient><linearGradient id="c" x1="0.395" y1="0.513" x2="0.527" y2="0.32" gradientUnits="objectBoundingBox"><stop offset="0" stop-color="#dc3728"/><stop offset="1" stop-color="#fa0"/></linearGradient><linearGradient id="d" x1="0.381" y1="1.027" x2="0.584" y2="0.252" xlink:href="#a"/><linearGradient id="e" x1="0.5" y1="0.164" x2="0.5" y2="1.007" gradientUnits="objectBoundingBox"><stop offset="0.007" stop-color="#8ac340"/><stop offset="0.989" stop-color="#68931c"/></linearGradient><linearGradient id="f" x1="0" y1="0.5" x2="1" y2="0.5" xlink:href="#a"/><linearGradient id="h" x1="-1.87" y1="-3.665" x2="3.229" y2="-3.665" xlink:href="#a"/><linearGradient id="i" x1="-2.832" y1="-11.108" x2="1.423" y2="-11.108" xlink:href="#a"/><linearGradient id="m" x1="0.5" y1="0.833" x2="0.5" y2="-0.195" xlink:href="#e"/></defs><g transform="translate(-975.838 -83.986)"><path class="a" d="M1176.568,141.186a4.358,4.358,0,0,1,.067-.76,3.054,3.054,0,0,0-.265-1.894,26.521,26.521,0,0,0-2.554-3.812,2.841,2.841,0,0,0-1.765-.827,4.338,4.338,0,0,1-3.2-3.051,3.581,3.581,0,0,0-.992-1.642,32.481,32.481,0,0,0-4.338-2.537,6.22,6.22,0,0,0-2.214-.1,4.339,4.339,0,0,1-4.385-1.577,2.839,2.839,0,0,0-1.668-1.226,50.9,50.9,0,0,0-5.162-.956,2.731,2.731,0,0,0-1.9.568,4.326,4.326,0,0,1-4.92-.517,2.4,2.4,0,0,0-1.476-.581q-3.2-.007-6.114.278a2.441,2.441,0,0,0-1.484.891,4.33,4.33,0,0,1-5.457.861,1.993,1.993,0,0,0-1.507-.2,40.421,40.421,0,0,0-4.956,1.726,1.954,1.954,0,0,0-.874,1.122,4.333,4.333,0,0,1-4.816,2.865,2.406,2.406,0,0,0-1.727.336,26.206,26.206,0,0,0-3.979,3.863,2.277,2.277,0,0,0-.393,1.65,4.331,4.331,0,0,1-2.275,3.813,2.906,2.906,0,0,0-1.1,1.115,16.664,16.664,0,0,0-.576,5.832c5.677,2.668,9.3-2.607,12.719-2.607,4.1,0,6.266,4.918,9.479,4.918,2.3,0,8.025-4.918,10.223-4.918,4.183,0,7.043,6.426,13.5,6.426,3.092,0,8.093-3.274,11.731-3.274,6,0,9.275,4.637,15.084,1.455a13.789,13.789,0,0,0-.247-2.568,3.465,3.465,0,0,0-1.092-1.518A4.322,4.322,0,0,1,1176.568,141.186Z" transform="translate(-49.056 -14.371)"/><path class="b" d="M1128.4,130.177s-7.881,1.94-12.791,6.669c0,0-4.942,5.158-4.266,9.078.607,3.516,2.861-.409,8.752-.409,6.062,0,7.577,4.4,10.548,4.4,2.667,0,6.3-4.391,10.366-4.391,5.517,0,8.669,6.118,14.064,6.118,3.455,0,6.524-3.031,10.537-3.031,3.686,0,14.386,5.349,12.75.5-.866-2.567-4.858-6.441-21.347-8.2C1157.015,140.907,1140.1,128.419,1128.4,130.177Z" transform="translate(-50.841 -17.275)"/><path class="c" d="M1110.8,170.626s2.364.364,1.394,1.273l11.458,2.182,9.154-1.576,21.763-.121,9.7,2.243s13.215-2,13.4-1.94,3.334-.364,3.334-.364-1.758-.667-.121-1.576.667-1.758.667-1.758l-20.248-.182-9.093,1.7-6.366-2.243-10.669-.909-7.154.3-11.882-.061Z" transform="translate(-50.661 -31.293)"/><g transform="translate(975.838 122.784)"><path class="d" d="M1023.911,191.807c-.667,0-.122-.364-.122-.364,13.58-5.093,31.1-13.094,31.1-24.612,0-11.639-4.79-20.732-19.4-20.732-29.523,0-59.651,25.521-59.651,40.98,0,6.5,3.88,7.82,3.88,7.82-2.546-21.278,40.495-39.1,57.833-39.1,11.959,0,9.9,7.216,2.728,14.913-9.03,9.695-26.089,20.352-32.774,20.129,4.362-5.469,14.263-14.457,24.59-21.039-.182-1.515-2.3-5.759-5.213-5.759-5.627,0-18.608,11.641-28.744,23.767-.734.383-2.389.763-5.629-.549a8.116,8.116,0,0,0-.234,8.077c-4.663,6.491-7.834,12.433-7.834,15.99,0,7.031,6.007,10.426,6.007,10.426a1.691,1.691,0,0,0,.607-.667c1.082-8.3,8.954-18.3,11.288-21.113a3.759,3.759,0,0,0,2.048,3.108c.849-.545,9.518-6.481,16.247-6.481,3.91,0,6.141,1.425,6.827,3.466-17.073,7.246-29.542,15.062-33.682,21.747-5,8.072-.568,14.791,6.547,14.791,8.608,0,36.676-18.55,36.676-35.039C1037.005,193.262,1027.305,191.019,1023.911,191.807ZM1003,223.573c-5.247,0,13.716-13.57,22.394-16.74C1019.452,214.37,1004.852,223.573,1003,223.573Z" transform="translate(-975.838 -146.099)"/><path class="d" d="M1149.09,230.478a97.932,97.932,0,0,0-10.548.6c7.459-12.66,14.064-24.607,19.975-27.634-.394-4.123-4.486-2.971-4.486-2.971-.849.121-.607-.485-.607-.485,0-2.425-1.576-7.335-6-7.335-5.6,0-13.76,6.965-19.563,14.878-.46.539-.994,1.181-1.593,1.914-1.637,2-10.048,11.851-12.549,11.033-.74-.242.088-2.783,2.274-5.547,4.066-5.144,11.321-11.093,11.321-15.868,0-6.775-13.822-4.274-12.988-11.927-.3-.606-1.031-.242-1.031-.242-.364.242-2.122,2.243-2,6.426,0,.036,0,.071,0,.106.157,4.105,2.482,5.714,2.482,5.714-.968,5.137-3.9,6.421-5.3,6.743,1.342-1.815,2.213-3.345,2.213-4.439a4.662,4.662,0,0,0-6.79-4.3c-1.137,4.031-16.6,24.369-20.611,24.369-1.414,0-.4-2.36,2.152-5.441,2.8-3.389,7.318-7.7,9.366-11.821,2.117-4.261,1.206-9.351-2.425-9.351-6.3,0-16.408,11.942-16.408,13.4,0,.682,1.242.849,1.242.849.485-.485,6.955-6.032,8.543-6.032,1.563,0,.257,2.654-2.455,5.956-3.033,3.693-7.742,8.291-10.5,12.822-3.246,5.328-3.509,10.654,1.031,10.654,5.282,0,13.034-9.032,13.4-9.457s.364.061.364.061c-1.106,1.7-1.788,9.093,4.183,9.093a3.781,3.781,0,0,0,2.97-1.152c-3.176-6.256,6.138-15.854,11.847-22.809a4.519,4.519,0,0,0,.672.061c3.728.091,8.4-5.381,9.245-6.289s3.334-.8,3.334-.182c0,2.061-10.646,9.574-15.853,18.019-3.584,5.815-3.986,12.23,1,12.23,6.9,0,15.709-12.235,16.991-14.069-2.48,6.817-1.562,12.253,2.168,12.253,4.907,0,12.484-9.459,12.909-9.944s.638-.8.848-.728c.478.167-.061.849-.061.849-2.305,3.848-4.866,7.968-7.653,11.826-23.591,4.341-46.187,15.852-46.187,28.1,0,3.99,5.8,8.355,10.253,8.355,12.822,0,28.429-12.352,38.01-27.37q.7-1.1,1.39-2.211c15.325-1.212,30.478,2.753,34.256,14.941.06.667.121.546.121.546C1175.643,252.3,1184.281,230.478,1149.09,230.478Zm-26.643,10.912c-13,12.309-27.279,17.731-27.279,14.852,0-3.6,11.783-11.2,26.006-14.943q.908-.239,1.83-.455C1122.818,241.027,1122.635,241.213,1122.447,241.391Zm8.457-22.139c-2.372,0,.751-5.9,5.365-11.142,3.874-4.4,8.849-8.275,12-8.275.533,0,1.637.182,1.682,1.865C1145.135,205.518,1133.541,219.251,1130.9,219.251Z" transform="translate(-1011.329 -161.371)"/><path class="d" d="M1267.1,190.956c-4.582,0-8.021,3.274-10.371,8.312a9.587,9.587,0,0,0-.829,1.675c-3.138,7.638-16.413,18.55-17.535,17.9-1.242-.721,1.067-4.018,4.577-7.85,3.752-4.1,8.578-7.729,8.578-11.306,0-6.79-14.17-6.062-10.185-15.034.587-1.319-.909-2.061-.909-2.061a11.36,11.36,0,0,0-6.123,10.184,6.7,6.7,0,0,0,1.429,4.58c-.944,3.208-15.943,22.517-24.283,22.517-3.758,0-2.241-5.259-1.993-5.948.409-1.137,1.144-.72,1.144-.72a2.51,2.51,0,0,0,1.515.364c3.819,0,13.192-5.88,16.671-11.76,2.672-4.517,2.3-9.4-2.971-9.4-8.681,0-19.438,10.837-23.7,20.732-3.27,7.587-2.515,14.853,4.668,14.853,13.679,0,29.682-24.077,32.995-28.565,2.281.483,4.409.425,4.409,1.649,0,2.955-10.927,9.763-15.883,17.141-3.482,5.184-3.229,10.867,2.425,10.867,6.225,0,19.6-14.664,22.814-18.456a49.809,49.809,0,0,1-2.445,8.332c-2.857,7.124-7.345,13.58-11.579,13.58a2.6,2.6,0,0,1-2.728-1.758.731.731,0,0,0-.667-.182c-.849.788-3.182,9.487,6.638,9.487,7,0,12.8-6.3,15.55-14.458,2.182-6.484,1.858-14.007,3.637-19.642,1.715-5.432,5.667-10.063,10.184-10.063C1272.131,195.927,1271.711,190.956,1267.1,190.956Zm-42.677,7.335c3.925,0-7.623,10.245-10.669,10.245C1210.661,208.535,1220.755,198.291,1224.422,198.291Z" transform="translate(-1060.078 -159.797)"/></g><path class="e" d="M1231.693,128.118c3.88-2.364,12.609-6.486,12.549-13.882,0,0-2.557,4.728-11.014,5.638-2.057.221-3.663-.318-8.324,1.94-3.505,1.7-8.972.3-7.941-3.455a4.929,4.929,0,0,1,7.577-2.667s-.485-2.668-5.031-4.3c0,0-8.669-4.061-18.308,2.788,0,0-1.394.182-.727-3.091s3.88-7.214,8.972-9.7,12.731-4.3,16.792-2.971a16.629,16.629,0,0,0-11.7-5.213c-7.76-.364-14.571,4.243-15.42,4.728s-8.769,4.061-10.708.242,1.334-6.547,4.85-7.639,7.638-4.061,6.3-6.547c0,0-1.031,3.213-11.7,1.515s-28.188,1.091-36.251,10.124c0,0-3.092-7.517-10.912-6.911,0,0,6.021,6.729-3.114,16.337,6.638-2.728,12.807-2.637,19.622-2.637,16.49,0,30.325,8.031,37.574,21.46,3.657,6.775,5.982,20.551,2.8,29.1,2.425-1.94,8.332-3.426,10.346-3.395,0,0,5.88-12.366,24.309-11.458a17.058,17.058,0,0,0-2.425-2.667C1228.116,133.877,1227.813,130.482,1231.693,128.118Z" transform="translate(-60.715 0)"/><path class="f" d="M1134.851,128.877s14.125-4.789,27.583-1.879c0,0,12.982,3.455,18.68,10.305a18.444,18.444,0,0,1,5.365,10.639s.272,1.5-.636,1.5-.728-.651-1.456-1.682-3.161-4.82-13.163-4.941-16.489-7.577-19.4-9.457-9.335-6.3-18.913-3.213C1132.911,130.15,1131.638,130.029,1134.851,128.877Z" transform="translate(-58.867 -15.793)"/><path class="g" d="M1101.69,158.812s1.429,3.47,4.729,4.123,5.82.121,8.063-1.819,3.7-2.425,5.517-.182,7.092,4.426,10.972,2a20.216,20.216,0,0,0,3.334-2c1.94-1.394,2.909-2.182,4.728-.364s6.777,5.456,11.254,5.334c3.132-.085,10.063-2.951,11.973-2.951,6.7,0,14.155,7.316,19.269-2.384a4.383,4.383,0,0,1,.26,2.116,6.2,6.2,0,0,1-6.323,5.1c-1.745,0-5.23-1.94-8.145-1.94-4.3,0-13.215,1.819-18.467,1.819-3.389,0-8-1.379-12.571-.879-4.239.464-5.07-.394-6.222-.818s-2.447-.5-5.781.227-5.567,2.2-7.547,1.137c-2.364-1.273-6.3.077-8.184.273C1105.912,167.875,1101.184,165.056,1101.69,158.812Z" transform="translate(-47.227 -28.087)"/><path class="h" d="M1225.4,105.286c6.983-5.2,17.913-8.184,23.188-5.729,1,.467,1.4.564,1.381.417a17.469,17.469,0,0,0-9.262-3.084c-7.759-.364-14.61,4.269-15.489,4.7-12.67,6.183-14.594-4.35-5.229-7.669a11.081,11.081,0,0,0-9.321,1.864,8.427,8.427,0,0,0-2.546,10.411C1208.566,107.035,1212.786,114.683,1225.4,105.286Z" transform="translate(-86.872 -3.599)"/><path class="h" d="M1274.807,139.508c-1.876-.024-3.91-.484-7.245,1.53-4.289,2.592-11.927-1.227-6.592-6.138-7.516-.817-12.433,6.577-7.893,11.465,5.287,5.691,12.91-1.265,15.183-2.538s2.546-1.91,6-2.818a24.276,24.276,0,0,0,5.319-2.41A10.464,10.464,0,0,1,1274.807,139.508Z" transform="translate(-103.411 -19.088)"/><path class="i" d="M1030.827,115.43s-.2,4.728-3.3,5.032c0,0,3.152.182,3.417,4.122,0,0,.485-3.94,2.971-4.426C1033.918,120.158,1031.008,119.734,1030.827,115.43Z" transform="translate(-19.404 -11.803)"/><path class="i" d="M1038.8,93.11s-.276,8.058-5.245,7.939c0,0,5.462.737,5.282,8.252,0,0-.38-7.831,4.963-8.128C1043.8,101.173,1038.422,100.256,1038.8,93.11Z" transform="translate(-21.664 -3.425)"/><g transform="translate(1021.464 105.477)"><path class="d" d="M1048.883,118.916h2.843v4.812h5.522v-4.812h2.843v12.9h-2.843v-5.577h-5.522v5.577h-2.843Z" transform="translate(-1048.883 -118.588)"/><path class="d" d="M1069.919,125.171a7.283,7.283,0,0,1,.52-2.807,6.146,6.146,0,0,1,1.448-2.141,6.386,6.386,0,0,1,2.2-1.358,8.447,8.447,0,0,1,5.577,0,6.389,6.389,0,0,1,2.2,1.358,6.146,6.146,0,0,1,1.449,2.141,7.84,7.84,0,0,1,0,5.614,6.132,6.132,0,0,1-1.449,2.141,6.371,6.371,0,0,1-2.2,1.358,8.437,8.437,0,0,1-5.577,0,6.368,6.368,0,0,1-2.2-1.358,6.132,6.132,0,0,1-1.448-2.141A7.28,7.28,0,0,1,1069.919,125.171Zm2.952,0a4.736,4.736,0,0,0,.282,1.667,3.822,3.822,0,0,0,.811,1.312,3.7,3.7,0,0,0,1.266.865,4.547,4.547,0,0,0,3.3,0,3.7,3.7,0,0,0,1.266-.865,3.832,3.832,0,0,0,.811-1.312,5.035,5.035,0,0,0,0-3.326,3.808,3.808,0,0,0-.811-1.322,3.711,3.711,0,0,0-1.266-.866,4.547,4.547,0,0,0-3.3,0,3.709,3.709,0,0,0-1.266.866,3.8,3.8,0,0,0-.811,1.322A4.756,4.756,0,0,0,1072.871,125.171Z" transform="translate(-1056.779 -118.391)"/><path class="d" d="M1097.086,121.431h-3.681v-2.515h10.205v2.515h-3.681v10.388h-2.843Z" transform="translate(-1065.595 -118.588)"/></g><path class="j" d="M1126.277,147.947a2.334,2.334,0,1,1-2.334-2.334A2.334,2.334,0,0,1,1126.277,147.947Z" transform="translate(-54.718 -23.133)"/><circle class="j" cx="3.364" cy="3.364" r="3.364" transform="translate(1072.165 117.267)"/><path class="j" d="M1124.64,139.8a1.273,1.273,0,1,1-1.273-1.273A1.273,1.273,0,0,1,1124.64,139.8Z" transform="translate(-54.9 -20.474)"/><path class="j" d="M1194.958,143.8c.65.673,1.65.31,1.014-1.145-1.272-2.717-4.115-8.459-12.731-12,0,0-7.426-3.562-13.912-4.229,0,0-10.041-.727-7.253.182a58.963,58.963,0,0,1,6.608,1.819c4.061,1.334,8.669,3.819,10.851,7.153s6.789,3.819,10.123,5.153C1191.74,141.565,1193.585,142.3,1194.958,143.8Z" transform="translate(-69.724 -15.827)"/><path class="k" d="M1196.057,140.142a1.122,1.122,0,1,1-1.115-1.128A1.122,1.122,0,0,1,1196.057,140.142Z" transform="translate(-81.821 -20.656)"/><path class="l" d="M1204.4,145.674a2.576,2.576,0,1,1-2.469-2.68A2.577,2.577,0,0,1,1204.4,145.674Z" transform="translate(-83.861 -22.149)"/><g transform="translate(1057.006 150.669)"><path class="h" d="M1152.436,192.224c9.639,2.893,9.661,6.773,9.661,6.773a34.435,34.435,0,0,1,8.586-6.176Z" transform="translate(-1123.295 -191.298)"/><path class="h" d="M1111.949,197.349c3.334-3.516,8.548-2.667,8.548-2.667a8.393,8.393,0,0,1,.379-3.444l-14.481-.5c-.546.061-.546.667-.546.667-.024.274-.045.691-.064,1.181C1111.4,192.681,1111.949,197.349,1111.949,197.349Z" transform="translate(-1105.783 -190.742)"/><path class="h" d="M1214.485,194.411l-10.309-.355a12.787,12.787,0,0,1,4.156,6.417c.727.182,1.99.424,2.232.849,1.516-1.637,5.558-4.91,5.558-4.91v-1.031C1216.062,194.35,1214.485,194.411,1214.485,194.411Z" transform="translate(-1142.716 -191.986)"/></g><g transform="translate(1060.016 141.485)"><path class="m" d="M1192.362,181.31a1.231,1.231,0,0,0-1.091-1.182,32.315,32.315,0,0,0-4.213-.121c-.667.121-7.537,5.7-10.689,1.273a9.859,9.859,0,0,0-4.425-1.819,39.061,39.061,0,0,0-4.6-.257c-.985-.015-3.69,2.814-8.547,2.814-2.525,0-5.311-.339-7.469-2.5-1.394-1.7-4.842-1.6-5.516-.969a3.865,3.865,0,0,0,1.114,6.528c7.076.274,15.891.57,22.671.831,4.87-2.156,8.328-1.077,10.5.4,5.36.206,10.777.376,11.112.39a.9.9,0,0,0,.909-.849C1192.175,185.071,1192.392,182.1,1192.362,181.31Z" transform="translate(-1123.3 -176.824)"/><path class="m" d="M1128.685,177.205s-1.084.015-2.115-.046-10.791-1.334-14.852-1.091a.815.815,0,0,0-.849.788s-.364,4.426-.242,5.759a.9.9,0,0,0,.727.727c.155.016,5.185.186,11.466.432A10.292,10.292,0,0,1,1128.685,177.205Z" transform="translate(-1110.602 -176.038)"/></g><path class="n" d="M1113.329,178.257c4.888,0,6.865,2.569,8.658,3.524,2.154,1.147,4.137-3.137,3.547-4.274l-3.9-.545S1109.634,178.257,1113.329,178.257Z" transform="translate(-51.344 -34.9)"/><path class="n" d="M1147.424,178.366a5.209,5.209,0,0,1,3.274,1.879,7.586,7.586,0,0,0,8.063,1.88s-3.7-.121-5.705-2S1149.909,177.759,1147.424,178.366Z" transform="translate(-64.408 -35.334)"/><path class="n" d="M1184.6,180.017a7.9,7.9,0,0,1,3.092,2.091,5.161,5.161,0,0,0,6.365,1.546,4.318,4.318,0,0,1-2.607-1.576C1190.482,180.744,1187.1,179.971,1184.6,180.017Z" transform="translate(-78.359 -36.046)"/><path class="o" d="M1104.362,179.559a13.119,13.119,0,0,1,7.759-2.758c6.244,0,6.653,2.508,8.74,2.508,1.369,0,4.006-3.3,7.28-3.3,4.647,0,8.725,3.213,12.616,3.213,5.57,0,5.752-3.336,11.891-3.336,4.274,0,5.91,4.123,10.176,4.123,3.509,0,6.01-3.835,9.784-3.835a8.149,8.149,0,0,1,3.311.622,6.078,6.078,0,0,0,6.425-1.273,2.145,2.145,0,0,0-.728-.3c-5.053-1.622-16.45-.485-18.247-.3-3.02.305-10.752-1.8-14.995-.955s-11.8-.5-18.277-.5c-5.911,0-7.639,2.364-15.55.273C1107.952,172,1103.764,179.468,1104.362,179.559Z" transform="translate(-48.222 -33.588)"/><path class="p" d="M1128.3,161.582a7.079,7.079,0,0,0,5.274,3.137s-4,.773-6.229-1.864c0,0-.909-1-.637-1.682S1127.757,160.9,1128.3,161.582Z" transform="translate(-56.614 -28.842)"/><path class="p" d="M1164.78,165.763a14.792,14.792,0,0,1-4.728-3.092c-1.5-1.773-2.728-1.592-2.819-.773S1157.369,164.08,1164.78,165.763Z" transform="translate(-68.085 -29.021)"/><path class="p" d="M1206.684,168.139s-5.638-1.819-7.335-1.758-1.637.849.182.97S1205.714,167.654,1206.684,168.139Z" transform="translate(-83.437 -30.928)"/><path class="p" d="M1204.8,178.125s-1.582.855-2.5,1.485c-1.019.7-2.951,1.97-3.739,1.607s.121-1.031,1.334-1.394S1204.553,178.246,1204.8,178.125Z" transform="translate(-83.488 -35.337)"/><path class="p" d="M1171.821,177.044a23.2,23.2,0,0,0-3.395,1.455c-1.091.666-3.758,1.576-4.486,1.394s-.485-.97.97-1.212a21.529,21.529,0,0,0,3.819-1.091A8.341,8.341,0,0,1,1171.821,177.044Z" transform="translate(-70.458 -34.922)"/><path class="p" d="M1136.141,177.543a16.266,16.266,0,0,0-3.758,2.122c-1.212,1.091-1.394.3-1.394.061S1132.927,178.452,1136.141,177.543Z" transform="translate(-58.238 -35.118)"/></g></svg>