<svg xmlns="http://www.w3.org/2000/svg" width="72.913" height="72.913" viewBox="0 0 72.913 72.913"><defs><style>.a{fill:#a80e0e;}</style></defs><path class="a" d="M69.385,39.985V24.7a3.532,3.532,0,0,0-3.528-3.528H63.5a3.505,3.505,0,0,0-2.352.917,3.5,3.5,0,0,0-2.352-.917H56.449a3.505,3.505,0,0,0-2.352.917,3.5,3.5,0,0,0-2.352-.917H49.393A3.532,3.532,0,0,0,45.865,24.7V39.787c-2.713-1.88-6.673-3.481-12.47-4.158l1.852-12.967a3.368,3.368,0,0,0-3.338-3.846H21.168V8.232a1.178,1.178,0,0,1,1.176-1.176h9.408a3.528,3.528,0,0,0,0-7.056H21.168a7.063,7.063,0,0,0-7.056,7.056v11.76H3.372A3.375,3.375,0,0,0,0,22.188a3.444,3.444,0,0,0,.034.477L2.868,42.5A11.528,11.528,0,0,0,0,49.393a4.7,4.7,0,0,0,3.16,4.423,4.675,4.675,0,0,0,.494,5.864,7.054,7.054,0,0,0,3.4,13.234H72.913v-29.4A3.532,3.532,0,0,0,69.385,39.985ZM62.329,24.7A1.178,1.178,0,0,1,63.5,23.52h2.352A1.178,1.178,0,0,1,67.033,24.7V39.985h-4.7Zm-7.056,0a1.178,1.178,0,0,1,1.176-1.176H58.8A1.178,1.178,0,0,1,59.977,24.7V39.985h-4.7Zm-7.056,0a1.178,1.178,0,0,1,1.176-1.176h2.352A1.178,1.178,0,0,1,52.921,24.7V39.985h-4.7ZM29.4,2.352h2.352a1.176,1.176,0,0,1,0,2.352H29.4Zm-4.7,0h2.352V4.7H24.7Zm-8.232,4.7a4.709,4.709,0,0,1,4.7-4.7h1.176V4.7a3.532,3.532,0,0,0-3.528,3.528V18.816H16.464ZM2.532,23.52l-.169-1.184a1.047,1.047,0,0,1-.011-.148,1.021,1.021,0,0,1,1.02-1.02H31.909a1.021,1.021,0,0,1,1.02,1.02,1.15,1.15,0,0,1-.009.145l-.171,1.188H29.4v2.352h3.012l-.672,4.7H3.54l-.672-4.7h24.18V23.52Zm28.874,9.408-.355,2.488c-1.26-.087-2.586-.136-4-.136H24.7c-10.248,0-16.234,2.386-19.742,5.2L3.876,32.928ZM2.352,49.393c0-.118.255-11.76,22.344-11.76h2.352c21.936,0,22.338,11.287,22.344,11.76a2.354,2.354,0,0,1-2.352,2.352H4.7A2.354,2.354,0,0,1,2.352,49.393Zm4.7,9.408a2.352,2.352,0,0,1,0-4.7H44.689a2.352,2.352,0,1,1,0,4.7ZM39.78,61.153l-4.825,5.63-12.869-5.63Zm4.909,9.408H7.056a4.7,4.7,0,1,1,0-9.408h9.162l19.388,8.483,7.271-8.483h1.811a4.7,4.7,0,0,1,0,9.408Zm3.4-10.882a4.619,4.619,0,0,0,.647-5.583H65.857v11.76H51.745a7.027,7.027,0,0,0-.412-2.352H58.8V61.153H49.934A7.1,7.1,0,0,0,48.092,59.679ZM70.561,47.041H68.209v2.352h2.352V70.561H49.934a7.027,7.027,0,0,0,1.4-2.352H68.209V51.745H51.091a4.656,4.656,0,0,0,.654-2.352H65.857V47.041H51.346a12.6,12.6,0,0,0-2.61-4.7H69.385a1.177,1.177,0,0,1,1.176,1.176Z"/><rect class="a" width="3" height="3" transform="translate(61 60.913)"/><rect class="a" width="3" height="2" transform="translate(15 39.913)"/><rect class="a" width="2" height="3" transform="translate(20 41.913)"/><rect class="a" width="2" height="2" transform="translate(25 39.913)"/><rect class="a" width="2" height="2" transform="translate(32 43.913)"/><rect class="a" width="2" height="2" transform="translate(38 39.913)"/><rect class="a" width="3" height="2" transform="translate(8 44.913)"/></svg>