<svg xmlns="http://www.w3.org/2000/svg" width="94.429" height="116.352" viewBox="0 0 94.429 116.352"><defs><style>.a{fill:#ffeba1;}.b{fill:#f7d36f;}.c{fill:#ffdb57;}.d{fill:#f6c134;}.e{fill:#ff9f34;}.f{fill:#fb8f2d;}.g{fill:#f2433b;}.h{fill:#d83636;}</style></defs><g transform="translate(-540 -1454)"><g transform="translate(555.401 1513.386)"><path class="a" d="M292.023,267.283v25.589a4.285,4.285,0,0,0,8.57,0V261.321Zm0,0" transform="translate(-241.175 -261.321)"/><path class="a" d="M208.258,325.551v8.729a4.285,4.285,0,0,0,8.57,0V319.59Zm0,0" transform="translate(-176.445 -306.348)"/><path class="a" d="M68.27,422.929v9.644a4.285,4.285,0,1,0,8.57,0v-15.6Zm0,0" transform="translate(-68.27 -381.597)"/></g><path class="b" d="M304.109,264.169v28.7a4.285,4.285,0,0,1-2.238,3.766,4.287,4.287,0,0,0,6.332-3.766V261.32Zm0,0" transform="translate(306.616 1252.066)"/><path class="b" d="M220.342,322.438V334.28a4.283,4.283,0,0,1-2.237,3.765,4.285,4.285,0,0,0,6.332-3.765V319.59Zm0,0" transform="translate(371.346 1207.038)"/><path class="b" d="M80.354,419.816v12.757a4.283,4.283,0,0,1-2.237,3.765,4.285,4.285,0,0,0,6.332-3.765v-15.6Zm0,0" transform="translate(479.521 1131.788)"/><path class="c" d="M31.594,55.221A38.2,38.2,0,0,1,42.958,54.1C49.973,54.288,61.141,55.98,74.5,63S95.6,78.25,99.732,83.922a38.143,38.143,0,0,1,5.531,9.988A5.26,5.26,0,0,0,106,95.442l-76.473,53.2.387-93.154a5.273,5.273,0,0,0,1.68-.263Zm0,0" transform="translate(517.07 1412.205)"/><path class="d" d="M103.134,208.8,29.561,259.984l-.034,8.212L106,215a5.26,5.26,0,0,1-.737-1.531,28.083,28.083,0,0,0-2.13-4.664Zm0,0" transform="translate(517.069 1292.646)"/><path class="e" d="M62.8,17.569h0C33.531,2.2,12.53,8.817,11.65,9.107a5.3,5.3,0,0,0,3.313,10.07,38.2,38.2,0,0,1,11.363-1.116c7.016.183,18.183,1.874,31.546,8.893S78.968,42.207,83.1,47.878a38.144,38.144,0,0,1,5.531,9.988A5.3,5.3,0,0,0,98.8,54.879c-.261-.889-6.73-21.938-36-37.312h0Zm0,0" transform="translate(533.701 1448.249)"/><path class="f" d="M94.661,73.973c-.013-.044-1.462-4.7-6.225-11.243C83.785,56.347,75.083,47.079,60.041,39.18s-27.611-9.8-35.507-10.009c-8.086-.211-12.746,1.241-12.79,1.256a5.945,5.945,0,0,1-3.715,0,5.3,5.3,0,0,0,6.936,5.52,38.2,38.2,0,0,1,11.363-1.116c7.016.183,18.183,1.875,31.546,8.893S78.97,58.981,83.1,64.652a38.123,38.123,0,0,1,5.531,9.989,5.3,5.3,0,0,0,8.44,2.613,5.944,5.944,0,0,1-2.413-3.281Zm0,0" transform="translate(533.699 1431.475)"/><path class="g" d="M129.736,176.383a8.993,8.993,0,1,1-8.992-8.992A8.993,8.993,0,0,1,129.736,176.383Zm0,0" transform="translate(453.531 1324.649)"/><path class="h" d="M120.743,199.371a9,9,0,0,1-8.454-5.922,8.992,8.992,0,1,0,16.909,0A9,9,0,0,1,120.743,199.371Zm0,0" transform="translate(453.532 1304.512)"/><path class="g" d="M30.2,248.081a8.99,8.99,0,0,0,.075-17.976Zm0,0" transform="translate(516.553 1276.187)"/><path class="h" d="M30.221,262.057,30.2,268.2a8.994,8.994,0,0,0,8.3-12.059,8.994,8.994,0,0,1-8.276,5.917Zm0,0" transform="translate(516.553 1256.068)"/><path class="g" d="M230.289,243.617a8.994,8.994,0,0,0-3.44,17.3l12.424-8.643a8.991,8.991,0,0,0-8.984-8.66Zm0,0" transform="translate(368.88 1265.746)"/><path class="h" d="M238.84,254.352,224.4,264.4a9.02,9.02,0,0,0,4.848,4.817l12.424-8.643a8.966,8.966,0,0,0-2.83-6.22Zm0,0" transform="translate(366.483 1257.45)"/><path class="g" d="M247.184,135.415a8.994,8.994,0,0,0,8.95-8.117,72.184,72.184,0,0,0-11.22-9.579,8.994,8.994,0,0,0,2.27,17.7Zm0,0" transform="translate(355.824 1363.033)"/><path class="h" d="M254.446,144.739a8.992,8.992,0,0,1-15.716-2.227,8.993,8.993,0,1,0,17.4,3.945q-.8-.847-1.688-1.718Zm0,0" transform="translate(355.824 1343.874)"/><path class="g" d="M87.11,67.844a8.991,8.991,0,0,0,8.678-11.35,63.692,63.692,0,0,0-15.282-2.38c-.351-.009-.692-.014-1.03-.016A8.993,8.993,0,0,0,87.11,67.844Zm0,0" transform="translate(479.521 1412.196)"/><path class="h" d="M95.324,62.1a8.995,8.995,0,0,1-16.668-.586,8.993,8.993,0,1,0,17.132.71c-.156-.043-.309-.083-.464-.124Zm0,0" transform="translate(479.521 1406.464)"/><path class="g" d="M108.7,343.9a8.992,8.992,0,0,0-6.109,15.59l14.422-10.031A8.995,8.995,0,0,0,108.7,343.9Zm0,0" transform="translate(462.835 1188.254)"/><path class="h" d="M112.248,347.031l-12.49,8.688a8.965,8.965,0,0,0,2.873,6.19l14.421-10.031a9.022,9.022,0,0,0-4.8-4.847Zm0,0" transform="translate(462.799 1185.833)"/><path d="M94.642,48.647c-.269-.917-6.935-22.623-36.825-38.33l-.034-.018C27.881-5.4,6.225,1.436,5.318,1.734a7.008,7.008,0,0,0,.454,13.445L5.712,29.592a1.705,1.705,0,0,0,1.7,1.713h.007a1.706,1.706,0,0,0,1.705-1.7l.06-14.414c.165-.041.33-.086.494-.14a32.132,32.132,0,0,1,7.183-1A10.7,10.7,0,1,0,37.83,17.066a81.978,81.978,0,0,1,13.451,5.647c2.318,1.218,4.459,2.472,6.44,3.742A10.7,10.7,0,1,0,73.292,39.8c1.008,1.18,1.881,2.3,2.631,3.326A37.269,37.269,0,0,1,81.2,52.6c.05.171.108.339.17.5l-11.5,8a10.7,10.7,0,1,0-16.791,11.68L40.948,81.217A10.7,10.7,0,1,0,23.389,93.43L14.947,99.3l-6.131,4.265L8.948,71.81a10.756,10.756,0,0,0,8.847-10.533,10.7,10.7,0,0,0-8.76-10.518l.06-14.329a1.707,1.707,0,0,0-1.7-1.713H7.389a1.707,1.707,0,0,0-1.706,1.7L5.39,106.835a1.722,1.722,0,0,0,2.68,1.408l6.124-4.26v6.379a5.991,5.991,0,0,0,11.982,0V95.648l19.83-13.795v5.464a5.991,5.991,0,1,0,11.982,0v-13.8l7.055-4.907V90.936a5.991,5.991,0,0,0,11.982,0V84.915a1.706,1.706,0,0,0-3.412,0v6.021a2.579,2.579,0,0,1-5.158,0v-24.7l5.158-3.588V78.092a1.706,1.706,0,0,0,3.412,0V60.276L83.313,55.9a7.015,7.015,0,0,0,6.581,1.441,7.006,7.006,0,0,0,4.748-8.7ZM14.383,61.279a7.326,7.326,0,0,1-5.42,7.039l.059-14.069a7.235,7.235,0,0,1,5.362,7.031ZM34.418,17.046a7.287,7.287,0,1,1-13.911-3.031,61.465,61.465,0,0,1,13.844,2.047,7.305,7.305,0,0,1,.067.984Zm29.09,25.7a7.287,7.287,0,0,1-2.561-14.109,70.475,70.475,0,0,1,9.7,8.276,7.251,7.251,0,0,1-7.142,5.833ZM59.669,57.068a7.255,7.255,0,0,1,7.191,6.123l-10.782,7.5a7.284,7.284,0,0,1,3.591-13.624ZM32.039,79.857a7.258,7.258,0,0,1,6.1,3.311L26.187,91.484a7.2,7.2,0,0,1-1.435-4.34A7.3,7.3,0,0,1,32.039,79.857Zm-9.275,30.5a2.579,2.579,0,0,1-5.158,0v-8.752l5.158-3.588ZM54.577,87.318a2.579,2.579,0,0,1-5.158,0V79.48l5.158-3.588Zm36.5-34.975a3.594,3.594,0,0,1-6.6-.707c-.012-.043-1.309-4.365-5.789-10.514a68.933,68.933,0,0,0-16.44-15.751C49.876,16.716,34.346,10.585,19.1,10.585A37.1,37.1,0,0,0,8.631,11.805a3.6,3.6,0,0,1-2.247-6.83c.851-.281,21.174-6.691,49.812,8.344l0,0,.022.012c28.63,15.042,34.893,35.415,35.146,36.275a3.57,3.57,0,0,1-.294,2.735Zm0,0" transform="translate(539.5 1454)"/><path d="M120.06,178.17a1.705,1.705,0,0,0,2.412.012,10.7,10.7,0,1,0-7.53,3.1,1.706,1.706,0,0,0,0-3.411,7.286,7.286,0,1,1,5.128-2.11,1.7,1.7,0,0,0-.011,2.412Zm0,0" transform="translate(459.333 1330.451)"/></g></svg>