<svg xmlns="http://www.w3.org/2000/svg" width="52" height="74.245" viewBox="0 0 52 74.245"><defs><style>.a{fill:#fa0;}</style></defs><g transform="translate(-8.203)"><path class="a" d="M30.048,12a9.491,9.491,0,1,0,9.491,9.491A9.5,9.5,0,0,0,30.048,12Zm0,16.271a6.779,6.779,0,1,1,6.779-6.779A6.787,6.787,0,0,1,30.048,28.271Z" transform="translate(4.397 4.271)"/><path class="a" d="M52.591,7.616a26,26,0,0,0-36.772,0C6.731,16.7,5.6,33.8,13.373,44.16L34.205,74.245,55.006,44.2C62.809,33.8,61.68,16.7,52.591,7.616Zm.216,35L34.205,69.48,15.574,42.575c-7.049-9.4-6.039-24.84,2.164-33.042a23.289,23.289,0,0,1,32.936,0C58.877,17.735,59.887,33.176,52.807,42.617Z" transform="translate(0 0)"/></g></svg>