<svg xmlns="http://www.w3.org/2000/svg" width="64.64" height="63.957" viewBox="0 0 64.64 63.957"><defs><style>.a{fill:#a80e0e;}</style></defs><g transform="translate(-1115 -6886)"><path class="a" d="M287.27,46.583A27.415,27.415,0,0,1,298.391,50.8a17.334,17.334,0,0,1,6.435,7.42,1.263,1.263,0,1,0,2.327-.981,19.838,19.838,0,0,0-7.347-8.53,29.95,29.95,0,0,0-12.15-4.622,1.263,1.263,0,0,0-.386,2.5Zm0,0" transform="translate(864.932 6847.491)"/><path class="a" d="M99.726,126.948a1.262,1.262,0,1,0,.434-1.512A1.291,1.291,0,0,0,99.726,126.948Zm0,0" transform="translate(1027.943 6776.597)"/><path class="a" d="M147.9,89.7a1.262,1.262,0,1,0,.427-1.507A1.289,1.289,0,0,0,147.9,89.7Zm0,0" transform="translate(985.854 6809.14)"/><path class="a" d="M199.664,126.948a1.262,1.262,0,1,0,.434-1.512A1.292,1.292,0,0,0,199.664,126.948Zm0,0" transform="translate(940.623 6776.597)"/><path class="a" d="M64.641,40.014a6.4,6.4,0,0,0-4.27-6.025V30.83a5.422,5.422,0,0,0,1.146-.584,4.985,4.985,0,0,0,2.262-4.185,4.932,4.932,0,0,0-.936-2.905,4.074,4.074,0,0,0,.251-2.337C62.013,15.036,58.3,9.744,52.64,5.914A36.538,36.538,0,0,0,32.321,0,36.538,36.538,0,0,0,12,5.914c-5.66,3.829-9.373,9.122-10.454,14.9a4.071,4.071,0,0,0,.527,2.875,4.911,4.911,0,0,0-.6,2.367,4.985,4.985,0,0,0,2.263,4.185,5.5,5.5,0,0,0,.531.313v3.43A6.4,6.4,0,0,0,0,40.014v.256A6.37,6.37,0,0,0,2.037,44.94a4.979,4.979,0,0,0,.731,5.635V55.13a8.837,8.837,0,0,0,8.827,8.827H53.047a8.837,8.837,0,0,0,8.827-8.827V51.147a4.986,4.986,0,0,0,1.12-6.6,6.359,6.359,0,0,0,1.646-4.274Zm-2.525,0v.256a3.867,3.867,0,0,1-3.861,3.861H38.677l8.051-7.979H58.254a3.866,3.866,0,0,1,3.862,3.861Zm-42.98-3.861.2.2,1.3,1.295L17.92,40.359l-4.207-4.207ZM31.056,44.5l-7.746-7.745h0l-.6-.6H43.136L34.7,44.5v0l0,0L32.875,46.32ZM4.03,21.282c.956-5.113,4.29-9.828,9.387-13.277a33.992,33.992,0,0,1,18.9-5.48,33.992,33.992,0,0,1,18.9,5.48c5.1,3.448,8.43,8.163,9.387,13.277a1.586,1.586,0,0,1-1.543,1.854H5.573A1.586,1.586,0,0,1,4.03,21.282Zm.066,4.1a4.111,4.111,0,0,0,1.477.275h53.5a4.118,4.118,0,0,0,2.005-.522,2.448,2.448,0,0,1,.18.921,2.5,2.5,0,0,1-1.145,2.089,2.974,2.974,0,0,1-2.543.351c-.421-.133-.818-.3-1.252-.4a6.825,6.825,0,0,0-1.43-.145,6.92,6.92,0,0,0-4.438,1.54,4.659,4.659,0,0,1-5.961,0,7.16,7.16,0,0,0-8.875,0,4.66,4.66,0,0,1-5.962,0,7.162,7.162,0,0,0-8.875,0,4.659,4.659,0,0,1-5.962,0,6.916,6.916,0,0,0-4.438-1.54,6.391,6.391,0,0,0-2.459.463,2.979,2.979,0,0,1-2.766-.27A2.5,2.5,0,0,1,4,26.061a2.432,2.432,0,0,1,.093-.674Zm2.951,5.774a6.133,6.133,0,0,0,1.9-.434,4.349,4.349,0,0,1,1.937-.223,4.567,4.567,0,0,1,2.471,1.056,7.16,7.16,0,0,0,8.875,0,4.66,4.66,0,0,1,5.962,0,7.16,7.16,0,0,0,8.875,0,4.66,4.66,0,0,1,5.962,0,7.16,7.16,0,0,0,8.874,0,4.463,4.463,0,0,1,2.981-1.078,4.088,4.088,0,0,1,1.5.275,5.847,5.847,0,0,0,1.459.376v2.495H6.8v-2.46c.084,0,.167,0,.251-.007ZM2.526,40.014a3.866,3.866,0,0,1,3.861-3.861h3.756l6.885,6.885a1.263,1.263,0,0,0,1.785,0l3.6-3.6,4.7,4.7H6.387A3.867,3.867,0,0,1,2.526,40.27Zm1.686,6.261a6.406,6.406,0,0,0,2.176.382H29.641L31.982,49a1.275,1.275,0,0,0,1.781,0l2.367-2.345H58.254a6.423,6.423,0,0,0,2.1-.354,3.217,3.217,0,0,0,.418-.166c.043-.022.105-.072.156-.068.07,0,.088.094.113.15a2.444,2.444,0,0,1,.216.962A2.627,2.627,0,0,1,59.3,49.694a2.99,2.99,0,0,1-1.955-.108,6.378,6.378,0,0,0-2.458-.463,6.916,6.916,0,0,0-4.437,1.541,4.659,4.659,0,0,1-5.962,0,7.16,7.16,0,0,0-8.875,0,4.659,4.659,0,0,1-5.962,0,7.16,7.16,0,0,0-8.875,0,4.659,4.659,0,0,1-5.962,0,6.919,6.919,0,0,0-4.438-1.541,6.378,6.378,0,0,0-2.459.463,2.976,2.976,0,0,1-2.562-.146A2.589,2.589,0,0,1,4.031,47.6a2.491,2.491,0,0,1-.007-.706c.009-.068.125-.643.187-.62ZM59.349,55.13a6.31,6.31,0,0,1-6.3,6.3H11.595a6.31,6.31,0,0,1-6.3-6.3V52.136a5.468,5.468,0,0,0,3.222-.081l.065-.022c.1-.034.194-.069.29-.108a3.907,3.907,0,0,1,1.5-.275,4.459,4.459,0,0,1,2.981,1.078,7.161,7.161,0,0,0,8.875,0,4.66,4.66,0,0,1,5.962,0,7.16,7.16,0,0,0,8.875,0,4.66,4.66,0,0,1,5.961,0,7.16,7.16,0,0,0,8.875,0,4.46,4.46,0,0,1,2.981-1.078A4.167,4.167,0,0,1,56,51.792c.346.1.672.248,1.018.346a5.447,5.447,0,0,0,2.331.131V55.13Zm0,0" transform="translate(1114.999 6886)"/><path class="a" d="M225.277,89.7a1.262,1.262,0,1,0,.436-1.512,1.289,1.289,0,0,0-.436,1.512Zm0,0" transform="translate(918.244 6809.141)"/><path class="a" d="M270.395,133.788a1.262,1.262,0,1,0,.435-1.512A1.29,1.29,0,0,0,270.395,133.788Zm0,0" transform="translate(878.822 6770.621)"/><path class="a" d="M241.644,40.019a1.263,1.263,0,1,0-.478-1.5,1.289,1.289,0,0,0,.478,1.5Zm0,0" transform="translate(904.349 6853.053)"/></g></svg>