<svg xmlns="http://www.w3.org/2000/svg" width="91.775" height="91.775" viewBox="0 0 91.775 91.775"><defs><style>.a{fill:#ff8a65;}.b{fill:#aed581;}.c{fill:#ff5a5a;}.d{fill:#f4c76c;}</style></defs><g transform="translate(-1287 -1467)"><g transform="translate(1298.89 1474.057)"><path class="a" d="M78.2,52.187A8.824,8.824,0,0,0,66.333,40.325Z" transform="translate(-66.333 -39.368)"/><path class="a" d="M412.279,374.149a8.827,8.827,0,0,0-1.188.083,7.018,7.018,0,0,1-1.241,2.44l10.3,10.3a8.824,8.824,0,0,0-7.868-12.819Z" transform="translate(-348.276 -314.14)"/></g><g transform="translate(1310.906 1485.519)"><path class="b" d="M334.9,270.873h0a7.06,7.06,0,0,0-9.984,0h0a7.04,7.04,0,0,0-5.551-2.044,9.166,9.166,0,0,1-.153,5.135l16.246,16.246a7.06,7.06,0,0,0-.558-9.353A7.059,7.059,0,0,0,334.9,270.873Z" transform="translate(-285.899 -239.142)"/><path class="b" d="M147.507,118.966a10.407,10.407,0,0,1,7.205.482,7.024,7.024,0,0,0-2.007-4.079,7.06,7.06,0,0,0,0-9.984h0a7.06,7.06,0,0,0-9.984,0h0a7.06,7.06,0,0,0-9.353-.558l19.9,19.9h0Z" transform="translate(-133.368 -103.317)"/></g><path class="c" d="M231.42,207.762c1.391-3.8-.543-9.538-5.089-14.084s-10.279-6.48-14.084-5.089Z" transform="translate(1112.798 1312.579)"/><path class="d" d="M95.346,98.077H9.847v-85.5a2.743,2.743,0,0,1,4.682-1.939L97.286,93.394A2.743,2.743,0,0,1,95.346,98.077Z" transform="translate(1278.918 1458.933)"/><path d="M90.452,84.079l-4.6-4.6a10.478,10.478,0,0,0,.628-3.592,10.6,10.6,0,0,0-9.746-10.553,8.822,8.822,0,0,0-1.543-5.1A8.827,8.827,0,0,0,62.922,47.965a8.806,8.806,0,0,0-4.2-1.51,21.573,21.573,0,0,0-5.345-8.446A22.549,22.549,0,0,0,46.8,33.387,8.692,8.692,0,0,0,45.53,30.57,8.827,8.827,0,0,0,33.258,18.3a8.837,8.837,0,0,0-6.84-1.349c.035-.353.057-.709.057-1.069a10.6,10.6,0,0,0-10.59-10.59,10.483,10.483,0,0,0-3.592.628l-4.6-4.6A4.508,4.508,0,0,0,0,4.51v85.5a1.765,1.765,0,0,0,1.765,1.765h85.5a4.508,4.508,0,0,0,3.187-7.7Zm-7.5-8.189q0,.333-.03.66l-7.2-7.2.011-.022c.085-.163.167-.327.241-.493A7.068,7.068,0,0,1,82.953,75.89ZM61.674,51.5a1.765,1.765,0,0,0,2.5,0,5.295,5.295,0,1,1,7.488,7.488,1.765,1.765,0,0,0,0,2.5,5.3,5.3,0,0,1,1.362,5.15l0,.01L59.2,52.826c.005-.023.009-.047.014-.07.017-.082.034-.164.049-.246v0a10.512,10.512,0,0,0,.153-2.347A5.291,5.291,0,0,1,61.674,51.5ZM55.7,48.865l.011.054c.029.145.053.289.075.432,0,.025.007.051.011.076L41.957,35.583A16.914,16.914,0,0,1,50.881,40.5,17.373,17.373,0,0,1,55.7,48.865ZM32.011,21.835a1.766,1.766,0,0,0,2.5,0A5.295,5.295,0,1,1,42,29.323a1.765,1.765,0,0,0,0,2.5q.114.114.22.234A11.1,11.1,0,0,0,39,32.1l-.023,0q-.187.032-.371.072l-.047.009-11.71-11.71A5.3,5.3,0,0,1,32.011,21.835ZM15.885,8.822a7.068,7.068,0,0,1,7.06,7.06q0,.333-.03.66l-7.69-7.69Q15.552,8.821,15.885,8.822ZM88.168,87.641a.945.945,0,0,1-.9.6H3.53v-3.53H14.12a1.765,1.765,0,0,0,0-3.53H3.53V4.51A.978.978,0,0,1,5.2,3.819l5.442,5.442h0L22.5,21.124h0l.151.151h0L36.8,35.416,55.97,54.59,72.216,70.836l10.3,10.3h0l5.442,5.442A.944.944,0,0,1,88.168,87.641Z" transform="translate(1287 1467)"/><path d="M41.152,131.518h7.06a1.765,1.765,0,1,0,0-3.53h-7.06a1.765,1.765,0,1,0,0,3.53Z" transform="translate(1254.673 1361.953)"/><path d="M41.152,229.983H60.566a1.765,1.765,0,0,0,0-3.53H41.152a1.765,1.765,0,1,0,0,3.53Z" transform="translate(1254.673 1281.138)"/><path d="M78.216,324.917H41.152a1.765,1.765,0,1,0,0,3.53H78.216a1.765,1.765,0,1,0,0-3.53Z" transform="translate(1254.673 1200.323)"/><path d="M101.858,454.014a1.776,1.776,0,0,0-.162-.3,1.674,1.674,0,0,0-.219-.268,1.692,1.692,0,0,0-.268-.219,1.81,1.81,0,0,0-.3-.162,1.7,1.7,0,0,0-.332-.1,1.731,1.731,0,0,0-.688,0,1.7,1.7,0,0,0-.332.1,1.8,1.8,0,0,0-.3.162,1.712,1.712,0,0,0-.487.487,1.789,1.789,0,0,0-.162.3,1.712,1.712,0,0,0-.1.332,1.695,1.695,0,0,0,0,.688,1.653,1.653,0,0,0,.1.33,1.726,1.726,0,0,0,.162.305,1.714,1.714,0,0,0,.487.487,1.752,1.752,0,0,0,.305.162,1.66,1.66,0,0,0,.33.1,1.695,1.695,0,0,0,.688,0,1.714,1.714,0,0,0,.332-.1,1.786,1.786,0,0,0,.3-.162,1.664,1.664,0,0,0,.268-.219,1.778,1.778,0,0,0,.517-1.248,1.738,1.738,0,0,0-.035-.344A1.694,1.694,0,0,0,101.858,454.014Z" transform="translate(1206.186 1095.26)"/></g></svg>